<svg id="Capa_1" enable-background="new 0 0 512 512" height="512" viewBox="0 0 512 512" width="512" xmlns="http://www.w3.org/2000/svg"><g><g><path d="m52.747 201.371c-1.505-6.548-2.301-13.367-2.301-20.372 0-50.022 40.551-90.573 90.573-90.573s90.573 40.551 90.573 90.573-40.551 90.573-90.573 90.573c-8.671 0-17.057-1.221-24.997-3.496-4.178 28.115-28.412 49.686-57.69 49.686-32.216 0-58.332-26.116-58.332-58.332 0-30.331 23.152-55.247 52.747-58.059z" fill="#e9edf5"/></g><g><path d="m459.253 201.371c1.505-6.548 2.301-13.367 2.301-20.372 0-50.022-40.551-90.573-90.573-90.573s-90.573 40.551-90.573 90.573 40.551 90.573 90.573 90.573c8.671 0 17.057-1.221 24.997-3.496 4.178 28.115 28.412 49.686 57.69 49.686 32.216 0 58.332-26.116 58.332-58.332 0-30.331-23.152-55.247-52.747-58.059z" fill="#e9edf5"/></g><g><path d="m408.117 229.467c-9.582-53.587-46.885-97.68-96.486-116.886-19.126 16.606-31.222 41.099-31.222 68.417 0 50.022 40.551 90.573 90.573 90.573 8.671 0 17.057-1.221 24.997-3.496 4.178 28.115 28.412 49.686 57.69 49.686 12.891 0 24.8-4.19 34.455-11.271-11.356-37.637-41.783-67.086-80.007-77.023z" fill="#dce1eb"/></g><g><path d="m58.332 317.762c29.278 0 53.512-21.571 57.69-49.686 7.94 2.275 16.326 3.496 24.997 3.496 50.022 0 90.573-40.551 90.573-90.573 0-27.318-12.095-51.811-31.222-68.417-49.601 19.205-86.904 63.299-96.486 116.886-38.224 9.937-68.652 39.386-80.006 77.024 9.654 7.08 21.563 11.27 34.454 11.27z" fill="#dce1eb"/></g><g><path d="m459.44 359.763c1.695-6.585 2.597-13.489 2.597-20.604 0-45.516-36.898-82.414-82.414-82.414 0-68.274-55.347-123.622-123.622-123.622s-123.623 55.347-123.623 123.622c-45.516 0-82.414 36.898-82.414 82.414 0 7.114.902 14.018 2.597 20.604h-21.656c-17.068 0-30.905 13.837-30.905 30.905 0 17.069 13.837 30.905 30.905 30.905h450.189c17.069 0 30.905-13.837 30.905-30.905 0-17.069-13.837-30.905-30.905-30.905z" fill="#f2f6fc"/></g><g><path d="m245.004 379.874c-63.122-5.565-112.626-58.562-112.626-123.13-45.516 0-82.414 36.898-82.414 82.414 0 7.114.902 14.018 2.597 20.604h-21.656c-17.068.001-30.905 13.838-30.905 30.906s13.837 30.905 30.905 30.905h273.823c-27.428.001-50.8-17.364-59.724-41.699z" fill="#e9edf5"/></g><g><g><g><ellipse cx="173.951" cy="318.494" fill="#ffa1ac" rx="30.274" ry="24.109"/></g><g><ellipse cx="338.049" cy="318.494" fill="#ffa1ac" rx="30.274" ry="24.109"/></g><g><path d="m280.409 299.97c0-15.085-10.928-16.502-24.409-16.502s-24.409 1.417-24.409 16.502 10.928 27.313 24.409 27.313 24.409-12.228 24.409-27.313z" fill="#495560"/></g></g><g><path d="m179.013 297.211c-4.142 0-7.5-3.358-7.5-7.5v-12.362c0-4.142 3.358-7.5 7.5-7.5s7.5 3.358 7.5 7.5v12.362c0 4.142-3.358 7.5-7.5 7.5z" fill="#495560"/></g><g><path d="m332.988 297.211c-4.142 0-7.5-3.358-7.5-7.5v-12.362c0-4.142 3.358-7.5 7.5-7.5s7.5 3.358 7.5 7.5v12.362c0 4.142-3.358 7.5-7.5 7.5z" fill="#495560"/></g></g></g></svg>