<svg id="Capa_1" enable-background="new 0 0 512 512" height="512" viewBox="0 0 512 512" width="512" xmlns="http://www.w3.org/2000/svg"><g><g><path d="m52.56 226.64c-1.695-6.585-2.597-13.489-2.597-20.604 0-45.516 36.898-82.414 82.414-82.414.001-68.275 55.349-123.622 123.623-123.622s123.622 55.347 123.622 123.622c45.516 0 82.414 36.898 82.414 82.414 0 7.114-.902 14.018-2.597 20.604h21.655c17.069 0 30.905 13.837 30.905 30.905 0 17.069-13.837 30.905-30.905 30.905h-450.189c-17.068.001-30.905-13.836-30.905-30.905 0-17.069 13.837-30.905 30.905-30.905z" fill="#f2f6fc"/></g><g><g><path d="m297.207 206.036c0-45.516 36.898-82.414 82.414-82.414.001-68.275-55.347-123.622-123.621-123.622s-123.622 55.347-123.622 123.622c-45.516 0-82.414 36.898-82.414 82.414 0 7.114.902 14.018 2.597 20.604h-21.656c-17.068 0-30.905 13.837-30.905 30.905s13.837 30.905 30.905 30.905h348.716c-45.516.001-82.414-36.897-82.414-82.414z" fill="#e9edf5"/></g></g><g><path d="m450.189 357.473c0-17.069-13.837-30.905-30.905-30.905h-247.244c-17.069 0-30.905 13.837-30.905 30.905 0 17.069-13.837 30.905-30.905 30.905h-79.325c-17.068 0-30.905 13.837-30.905 30.906 0 17.069 13.837 30.905 30.905 30.905h194.189c17.069 0 30.905 13.837 30.905 30.905.001 17.069 13.838 30.906 30.906 30.906h194.189c17.069 0 30.906-13.837 30.906-30.905 0-17.069-13.837-30.905-30.905-30.905h-79.324c-17.069 0-30.905-13.837-30.905-30.905 0-17.069 13.837-30.905 30.905-30.905h17.513c17.068-.002 30.905-13.839 30.905-30.907z" fill="#cdd2e1"/></g><g><path d="m246.586 133.924c0-17.069 13.837-30.905 30.905-30.905h203.603c17.069 0 30.905 13.837 30.905 30.905 0 17.069-13.837 30.905-30.905 30.905h-66.447c-17.069 0-30.905 13.837-30.905 30.905 0 17.069-13.837 30.905-30.905 30.905h-193.038c-17.069 0-30.905-13.837-30.905-30.905 0-17.069 13.837-30.905 30.905-30.905h55.882c17.068 0 30.905-13.837 30.905-30.905z" fill="#cdd2e1"/></g><g><path d="m481.095 450.189h-148.397c-17.052 0-30.852-13.953-30.906-31.005-.054-17.023-13.87-30.805-30.905-30.805h-239.339c-16.84 0-31.075 13.203-31.536 30.037-.479 17.465 13.536 31.774 30.894 31.774h194.189c17.052 0 30.852 13.953 30.906 31.005.053 17.022 13.869 30.805 30.904 30.805h193.546c16.84 0 31.075-13.203 31.536-30.037.48-17.465-13.535-31.774-30.892-31.774z" fill="#bec3d2"/></g><g><path d="m320.447 133.924c0-17.069 13.837-30.905 30.905-30.905h-73.861c-17.069 0-30.905 13.837-30.905 30.905s-13.837 30.905-30.905 30.905h-55.882c-17.069 0-30.905 13.837-30.905 30.905s13.837 30.905 30.905 30.905h193.038c17.069 0 30.905-13.837 30.905-30.905s13.837-30.905 30.905-30.905h-63.296c-17.068 0-30.904-13.837-30.904-30.905z" fill="#bec3d2"/></g></g></svg>