<?xml version="1.0" encoding="UTF-8" standalone="no"?>
<svg
   xmlns:dc="http://purl.org/dc/elements/1.1/"
   xmlns:cc="http://creativecommons.org/ns#"
   xmlns:rdf="http://www.w3.org/1999/02/22-rdf-syntax-ns#"
   xmlns:svg="http://www.w3.org/2000/svg"
   xmlns="http://www.w3.org/2000/svg"
   xmlns:sodipodi="http://sodipodi.sourceforge.net/DTD/sodipodi-0.dtd"
   xmlns:inkscape="http://www.inkscape.org/namespaces/inkscape"
   id="Capa_1"
   enable-background="new 0 0 512 512"
   height="512"
   viewBox="0 0 512 512"
   width="512"
   version="1.1"
   sodipodi:docname="HalfClearSky_noFace.svg"
   inkscape:version="1.0.2-2 (e86c870879, 2021-01-15)">
  <metadata
     id="metadata81">
    <rdf:RDF>
      <cc:Work
         rdf:about="">
        <dc:format>image/svg+xml</dc:format>
        <dc:type
           rdf:resource="http://purl.org/dc/dcmitype/StillImage" />
      </cc:Work>
    </rdf:RDF>
  </metadata>
  <defs
     id="defs79" />
  <sodipodi:namedview
     pagecolor="#ffffff"
     bordercolor="#666666"
     borderopacity="1"
     objecttolerance="10"
     gridtolerance="10"
     guidetolerance="10"
     inkscape:pageopacity="0"
     inkscape:pageshadow="2"
     inkscape:window-width="2558"
     inkscape:window-height="1368"
     id="namedview77"
     showgrid="false"
     inkscape:zoom="1.96875"
     inkscape:cx="256"
     inkscape:cy="256"
     inkscape:window-x="1273"
     inkscape:window-y="1080"
     inkscape:window-maximized="0"
     inkscape:current-layer="g74"
     inkscape:document-rotation="0" />
  <g
     id="g74">
    <g
       id="g4">
      <path
         d="m485.575 86.289h-.002c-9.984 1.688-16.696-9.937-10.242-17.74 7.444-9.001 6.822-22.187-1.437-30.446-8.259-8.259-21.445-8.882-30.446-1.438l-.001.001c-7.803 6.454-19.428-.258-17.74-10.242 1.947-11.517-5.185-22.625-16.468-25.648-11.282-3.023-23.013 3.031-27.086 13.978l-.001.002c-3.531 9.49-16.954 9.49-20.485 0-4.073-10.947-15.803-17.001-27.086-13.978-11.282 3.023-18.414 14.131-16.468 25.648v.002c1.688 9.984-9.937 16.696-17.74 10.242-9.001-7.444-22.187-6.822-30.446 1.437-8.259 8.259-8.882 21.445-1.438 30.446l.001.001c6.454 7.803-.258 19.428-10.242 17.74-11.517-1.947-22.625 5.186-25.648 16.468-3.023 11.282 3.031 23.013 13.978 27.086l.002.001c9.49 3.531 9.49 16.954 0 20.485-10.947 4.073-17.001 15.803-13.978 27.086 3.023 11.282 14.131 18.414 25.648 16.468h.002c9.984-1.688 16.696 9.937 10.242 17.74-7.444 9.001-6.822 22.187 1.437 30.446 8.259 8.259 21.445 8.882 30.446 1.438l.001-.001c7.803-6.454 19.428.258 17.74 10.242-1.947 11.517 5.185 22.625 16.468 25.648 11.282 3.023 23.013-3.031 27.085-13.978l.001-.002c3.531-9.49 16.954-9.49 20.485 0 4.073 10.947 15.803 17.001 27.086 13.978 11.282-3.023 18.414-14.131 16.468-25.648v-.002c-1.688-9.984 9.938-16.696 17.74-10.242 9.001 7.444 22.187 6.822 30.446-1.437 8.259-8.259 8.882-21.445 1.438-30.446l-.001-.001c-6.454-7.803.258-19.428 10.242-17.74 11.517 1.947 22.625-5.186 25.648-16.468 3.023-11.282-3.031-23.013-13.978-27.086l-.002-.001c-9.49-3.531-9.49-16.954 0-20.485 10.947-4.073 17.001-15.803 13.978-27.086-3.022-11.283-14.13-18.415-25.647-16.468z"
         fill="#ffa973"
         id="path2" />
    </g>
    <g
       id="g8">
      <path
         d="m408.117 170.119c-12.341-69.016-70.658-122.293-142.02-126.919-4.379 7.953-3.658 18.035 2.393 25.352l.001.001c6.453 7.803-.258 19.428-10.242 17.74-11.517-1.947-22.625 5.186-25.648 16.468-3.023 11.282 3.031 23.013 13.978 27.086l.002.001c9.49 3.531 9.49 16.954 0 20.485-10.947 4.073-17.001 15.803-13.978 27.086 3.023 11.282 14.131 18.414 25.648 16.468h.002c9.984-1.688 16.696 9.937 10.242 17.74-7.444 9.001-6.822 22.187 1.438 30.446 8.259 8.259 21.445 8.882 30.446 1.438l.001-.001c7.803-6.454 19.428.258 17.74 10.242-1.947 11.517 5.185 22.625 16.468 25.648 11.282 3.023 23.013-3.031 27.086-13.978v-.002c3.531-9.49 16.954-9.49 20.485 0 4.073 10.947 15.803 17.001 27.086 13.978 11.282-3.023 18.414-14.131 16.468-25.648v-.002c-1.688-9.984 9.937-16.696 17.74-10.242 9.001 7.444 22.186 6.822 30.446-1.437 3.892-3.892 6.065-8.88 6.521-14.006-14.609-28.336-40.816-49.758-72.303-57.944z"
         fill="#ff9959"
         id="path6" />
    </g>
    <g
       id="g12">
      <circle
         cx="371.913"
         cy="140.087"
         fill="#fcef92"
         r="82.414"
         id="circle10" />
    </g>
    <g
       id="g16">
      <path
         d="m371.913 222.502c29.06 0 54.589-15.054 69.263-37.776-10.043-6.524-21.17-11.516-33.059-14.607-7.895-44.15-34.605-81.858-71.508-104.512-27.85 13.225-47.111 41.599-47.111 74.48 0 45.517 36.898 82.415 82.415 82.415z"
         fill="#ffd883"
         id="path14" />
    </g>
    <g
       id="g20">
      <path
         d="m459.44 300.415c1.695-6.585 2.597-13.489 2.597-20.604 0-45.516-36.898-82.414-82.414-82.414 0-68.274-55.347-123.622-123.622-123.622s-123.622 55.347-123.622 123.622c-45.516 0-82.414 36.898-82.414 82.414 0 7.114.902 14.018 2.597 20.604h-21.657c-17.068 0-30.905 13.837-30.905 30.905 0 17.069 13.837 30.905 30.905 30.905h450.189c17.069 0 30.905-13.837 30.905-30.905 0-17.069-13.837-30.905-30.905-30.905z"
         fill="#f2f6fc"
         id="path18" />
    </g>
    <g
       id="g24">
      <path
         d="m245.004 320.526c-63.122-5.565-112.626-58.562-112.626-123.13-45.516 0-82.414 36.898-82.414 82.415 0 7.114.902 14.018 2.597 20.604h-21.656c-17.068 0-30.905 13.837-30.905 30.905s13.837 30.905 30.905 30.905h273.823c-27.428.001-50.8-17.364-59.724-41.699z"
         fill="#e9edf5"
         id="path22" />
    </g>
  </g>
</svg>
