<?xml version="1.0" encoding="UTF-8" standalone="no"?>
<svg
   xmlns:dc="http://purl.org/dc/elements/1.1/"
   xmlns:cc="http://creativecommons.org/ns#"
   xmlns:rdf="http://www.w3.org/1999/02/22-rdf-syntax-ns#"
   xmlns:svg="http://www.w3.org/2000/svg"
   xmlns="http://www.w3.org/2000/svg"
   xmlns:sodipodi="http://sodipodi.sourceforge.net/DTD/sodipodi-0.dtd"
   xmlns:inkscape="http://www.inkscape.org/namespaces/inkscape"
   id="Capa_1"
   enable-background="new 0 0 512.001 512.001"
   height="512"
   viewBox="0 0 512.001 512.001"
   width="512"
   version="1.1"
   sodipodi:docname="HeavySnow_noFace.svg"
   inkscape:version="1.0.2-2 (e86c870879, 2021-01-15)">
  <metadata
     id="metadata69">
    <rdf:RDF>
      <cc:Work
         rdf:about="">
        <dc:format>image/svg+xml</dc:format>
        <dc:type
           rdf:resource="http://purl.org/dc/dcmitype/StillImage" />
      </cc:Work>
    </rdf:RDF>
  </metadata>
  <defs
     id="defs67" />
  <sodipodi:namedview
     pagecolor="#ffffff"
     bordercolor="#666666"
     borderopacity="1"
     objecttolerance="10"
     gridtolerance="10"
     guidetolerance="10"
     inkscape:pageopacity="0"
     inkscape:pageshadow="2"
     inkscape:window-width="2558"
     inkscape:window-height="1368"
     id="namedview65"
     showgrid="false"
     inkscape:zoom="1.96875"
     inkscape:cx="256"
     inkscape:cy="256"
     inkscape:window-x="1273"
     inkscape:window-y="1080"
     inkscape:window-maximized="0"
     inkscape:current-layer="g62" />
  <g
     id="g62">
    <g
       id="g4">
      <path
         d="m456.46 223.32c1.67-6.489 2.559-13.292 2.559-20.302 0-44.85-36.358-81.207-81.207-81.207 0-67.274-54.537-121.811-121.811-121.811s-121.811 54.537-121.811 121.811c-44.85 0-81.207 36.358-81.207 81.207 0 7.01.888 13.813 2.559 20.302h-21.339c-16.819 0-30.453 13.634-30.453 30.453 0 16.819 13.634 30.453 30.453 30.453h443.595c16.819 0 30.453-13.634 30.453-30.453 0-16.819-13.634-30.453-30.453-30.453z"
         fill="#636978"
         id="path2" />
    </g>
    <g
       id="g8">
      <path
         d="m245.166 243.137c-62.197-5.484-110.976-57.704-110.976-121.326-44.85 0-81.207 36.358-81.207 81.207 0 7.01.888 13.813 2.559 20.302h-21.339c-16.819 0-30.453 13.634-30.453 30.453s13.634 30.453 30.453 30.453h269.812c-27.026-.001-50.056-17.111-58.849-41.089z"
         fill="#555a66"
         id="path6" />
    </g>
    <g
       id="g60">
      <path
         d="m484.083 432.288c-5.257-3.035-11.379-3.841-17.245-2.271-3.355.899-6.378 2.535-8.933 4.738l-17.244-9.956v-20.27l17.244-9.955c2.555 2.203 5.578 3.839 8.933 4.738 1.958.524 3.945.784 5.919.784 3.938 0 7.824-1.033 11.326-3.055 5.257-3.035 9.018-7.936 10.589-13.8s.765-11.988-2.271-17.245c-3.034-5.257-7.936-9.018-13.799-10.589-5.865-1.57-11.99-.764-17.245 2.271-5.257 3.035-9.018 7.936-10.589 13.8-.899 3.355-.993 6.791-.363 10.106l-17.244 9.956-17.555-10.135v-19.9c8.856-3.106 15.227-11.545 15.227-21.449 0-12.531-10.195-22.726-22.727-22.726s-22.726 10.195-22.726 22.726c0 9.904 6.37 18.343 15.226 21.449v19.9l-17.554 10.135-17.244-9.956c.63-3.314.536-6.751-.364-10.106-1.571-5.864-5.332-10.765-10.589-13.8-10.851-6.266-24.778-2.534-31.045 8.319-6.265 10.853-2.533 24.779 8.318 31.044 3.502 2.022 7.389 3.055 11.326 3.055 1.975 0 3.962-.26 5.92-.784 3.355-.899 6.378-2.535 8.933-4.738l17.244 9.955v20.27l-17.244 9.956c-2.555-2.203-5.578-3.839-8.933-4.738-5.862-1.57-11.987-.765-17.246 2.271-10.852 6.266-14.584 20.192-8.318 31.045 3.035 5.257 7.937 9.017 13.8 10.588 1.958.525 3.945.784 5.919.784 3.938 0 7.825-1.033 11.326-3.055 5.257-3.035 9.018-7.936 10.589-13.799.899-3.355.993-6.791.363-10.106l17.244-9.956 17.554 10.135v19.9c-8.856 3.106-15.226 11.545-15.226 21.448 0 12.531 10.194 22.727 22.726 22.727s22.727-10.195 22.727-22.727c0-9.904-6.37-18.343-15.227-21.449v-19.9l17.555-10.135 17.244 9.956c-.63 3.315-.536 6.751.364 10.106 1.571 5.864 5.332 10.764 10.589 13.799 3.502 2.022 7.388 3.055 11.326 3.055 1.974 0 3.961-.259 5.919-.784 5.863-1.571 10.765-5.332 13.799-10.588 3.035-5.257 3.842-11.382 2.271-17.246-1.572-5.862-5.332-10.763-10.589-13.798zm-18.826-56.928c.534-1.993 1.812-3.659 3.601-4.691 1.19-.688 2.512-1.039 3.851-1.039.671 0 1.347.088 2.012.267 1.993.534 3.659 1.812 4.691 3.601 1.032 1.787 1.307 3.869.772 5.863-.534 1.993-1.812 3.659-3.601 4.691-1.787 1.033-3.869 1.307-5.862.772-1.993-.534-3.659-1.812-4.691-3.601-1.033-1.787-1.308-3.869-.773-5.863zm-57.151-43.031c4.261 0 7.727 3.466 7.727 7.726s-3.466 7.727-7.727 7.727c-4.26 0-7.726-3.466-7.726-7.727s3.466-7.726 7.726-7.726zm-62.613 52.494c-1.994.534-4.075.261-5.863-.772-3.689-2.13-4.958-6.865-2.828-10.554 1.43-2.477 4.032-3.862 6.705-3.862 1.31 0 2.636.333 3.85 1.034 1.788 1.032 3.066 2.698 3.601 4.691.534 1.993.26 4.074-.771 5.861 0 .001-.001.001-.001.002s-.001.002-.001.002c-1.034 1.787-2.7 3.064-4.692 3.598zm5.464 69.146c-.534 1.993-1.812 3.659-3.601 4.691-1.786 1.033-3.869 1.307-5.862.772-1.994-.534-3.66-1.813-4.692-3.6-2.13-3.689-.861-8.424 2.828-10.554 1.788-1.032 3.872-1.305 5.863-.772 1.993.534 3.659 1.812 4.691 3.601 1.033 1.787 1.307 3.869.773 5.862zm57.149 43.031c-4.26 0-7.726-3.466-7.726-7.727s3.466-7.726 7.726-7.726c4.261 0 7.727 3.466 7.727 7.726s-3.466 7.727-7.727 7.727zm17.555-72.201-17.555 10.135-17.554-10.135v-20.27l17.554-10.135 17.555 10.135zm53.75 31.034c-1.032 1.787-2.698 3.065-4.691 3.6-1.993.533-4.076.26-5.862-.772-1.788-1.032-3.066-2.698-3.601-4.691-.534-1.992-.26-4.074.771-5.861 0-.001.001-.001.001-.002s.001-.002.001-.002c1.032-1.786 2.698-3.064 4.69-3.598.665-.178 1.341-.267 2.012-.267 1.339 0 2.66.351 3.851 1.039 1.788 1.032 3.066 2.698 3.601 4.691.534 1.993.259 4.074-.773 5.863z"
         fill="#a3d4ff"
         id="path30" />
      <g
         id="g34">
        <path
           d="m198.02 452.799c-1.272 0-2.562-.324-3.743-1.006l-173.975-100.444c-3.587-2.071-4.816-6.658-2.745-10.245 2.07-3.587 6.657-4.817 10.245-2.745l173.974 100.444c3.587 2.071 4.816 6.658 2.745 10.245-1.388 2.405-3.909 3.751-6.501 3.751z"
           fill="#bfe1ff"
           id="path32" />
      </g>
      <g
         id="g38">
        <path
           d="m300.561 512.001c-1.272 0-2.562-.324-3.743-1.006l-76.16-43.971c-3.587-2.071-4.816-6.658-2.745-10.245s6.658-4.817 10.245-2.745l76.16 43.971c3.587 2.071 4.816 6.658 2.745 10.245-1.388 2.406-3.91 3.751-6.502 3.751z"
           fill="#bfe1ff"
           id="path36" />
      </g>
      <g
         id="g42">
        <path
           d="m111.59 512.001c-1.272 0-2.562-.324-3.743-1.006l-87.544-50.543c-3.587-2.071-4.816-6.658-2.745-10.245 2.07-3.587 6.657-4.817 10.245-2.745l87.544 50.543c3.587 2.071 4.816 6.658 2.745 10.245-1.389 2.406-3.91 3.751-6.502 3.751z"
           fill="#bfe1ff"
           id="path40" />
      </g>
      <g
         id="g46">
        <path
           d="m300.561 457.45c-1.272 0-2.562-.324-3.743-1.006l-202.331-116.817c-3.587-2.071-4.816-6.658-2.745-10.245 2.071-3.588 6.658-4.817 10.245-2.745l202.332 116.816c3.587 2.071 4.816 6.658 2.745 10.245-1.389 2.406-3.911 3.752-6.503 3.752z"
           fill="#bfe1ff"
           id="path44" />
      </g>
      <g
         id="g50">
        <path
           d="m206.075 512.001c-1.272 0-2.562-.324-3.743-1.006l-182.03-105.095c-3.587-2.071-4.816-6.658-2.745-10.245 2.07-3.588 6.657-4.817 10.245-2.745l182.03 105.095c3.587 2.071 4.816 6.658 2.745 10.245-1.389 2.406-3.91 3.751-6.502 3.751z"
           fill="#bfe1ff"
           id="path48" />
      </g>
      <g
         id="g54">
        <path
           d="m300.561 402.899c-1.272 0-2.562-.324-3.743-1.006l-107.846-62.265c-3.587-2.071-4.816-6.658-2.745-10.245 2.071-3.588 6.658-4.817 10.245-2.745l107.846 62.265c3.587 2.071 4.816 6.658 2.745 10.245-1.388 2.406-3.91 3.751-6.502 3.751z"
           fill="#bfe1ff"
           id="path52" />
      </g>
      <g
         id="g58">
        <path
           d="m300.561 348.347c-1.272 0-2.562-.324-3.743-1.006l-13.36-7.713c-3.587-2.071-4.816-6.658-2.745-10.245 2.07-3.588 6.655-4.817 10.245-2.745l13.36 7.713c3.587 2.071 4.816 6.658 2.745 10.245-1.388 2.405-3.91 3.751-6.502 3.751z"
           fill="#bfe1ff"
           id="path56" />
      </g>
    </g>
  </g>
</svg>
