<?xml version="1.0" encoding="UTF-8" standalone="no"?>
<svg
   xmlns:dc="http://purl.org/dc/elements/1.1/"
   xmlns:cc="http://creativecommons.org/ns#"
   xmlns:rdf="http://www.w3.org/1999/02/22-rdf-syntax-ns#"
   xmlns:svg="http://www.w3.org/2000/svg"
   xmlns="http://www.w3.org/2000/svg"
   xmlns:sodipodi="http://sodipodi.sourceforge.net/DTD/sodipodi-0.dtd"
   xmlns:inkscape="http://www.inkscape.org/namespaces/inkscape"
   id="Capa_1"
   enable-background="new 0 0 512 512"
   height="512"
   viewBox="0 0 512 512"
   width="512"
   version="1.1"
   sodipodi:docname="HeavyRain_noFace.svg"
   inkscape:version="1.0.2-2 (e86c870879, 2021-01-15)">
  <metadata
     id="metadata81">
    <rdf:RDF>
      <cc:Work
         rdf:about="">
        <dc:format>image/svg+xml</dc:format>
        <dc:type
           rdf:resource="http://purl.org/dc/dcmitype/StillImage" />
      </cc:Work>
    </rdf:RDF>
  </metadata>
  <defs
     id="defs79" />
  <sodipodi:namedview
     pagecolor="#ffffff"
     bordercolor="#666666"
     borderopacity="1"
     objecttolerance="10"
     gridtolerance="10"
     guidetolerance="10"
     inkscape:pageopacity="0"
     inkscape:pageshadow="2"
     inkscape:window-width="2558"
     inkscape:window-height="1368"
     id="namedview77"
     showgrid="false"
     inkscape:zoom="1.96875"
     inkscape:cx="256"
     inkscape:cy="256"
     inkscape:window-x="1273"
     inkscape:window-y="1080"
     inkscape:window-maximized="0"
     inkscape:current-layer="g74" />
  <g
     id="g74">
    <g
       id="g4">
      <path
         d="m459.44 226.64c1.695-6.585 2.597-13.489 2.597-20.604 0-45.516-36.898-82.414-82.414-82.414-.001-68.275-55.349-123.622-123.623-123.622s-123.622 55.347-123.622 123.622c-45.516 0-82.414 36.898-82.414 82.414 0 7.114.902 14.018 2.597 20.604h-21.656c-17.068 0-30.905 13.837-30.905 30.905 0 17.069 13.837 30.905 30.905 30.905h450.189c17.069 0 30.905-13.837 30.905-30.905 0-17.069-13.837-30.905-30.905-30.905z"
         fill="#e6f1ff"
         id="path2" />
    </g>
    <g
       id="g8">
      <path
         d="m245.004 246.751c-63.122-5.565-112.626-58.562-112.626-123.13-45.516 0-82.414 36.898-82.414 82.414 0 7.114.902 14.018 2.597 20.604h-21.656c-17.068.001-30.905 13.838-30.905 30.906s13.837 30.905 30.905 30.905h273.823c-27.428.001-50.8-17.364-59.724-41.699z"
         fill="#cde2ff"
         id="path6" />
    </g>
    <g
       id="g36">
      <path
         d="m429.275 401.287c19.998-19.998 20.315-49.233 19.178-62.837-.374-4.477-3.902-8.046-8.379-8.422-13.219-1.111-41.302-.862-61.251 17.603-15.154 14.026-16.569 37.841-2.402 52.863 14.308 15.171 38.212 15.435 52.854.793z"
         fill="#cde2ff"
         id="path34" />
    </g>
    <g
       id="g40">
      <path
         d="m338.105 501.213c19.998-19.998 20.315-49.233 19.178-62.837-.374-4.477-3.902-8.046-8.379-8.422-13.219-1.111-41.302-.862-61.251 17.603-15.154 14.026-16.569 37.841-2.402 52.863 14.308 15.171 38.212 15.435 52.854.793z"
         fill="#cde2ff"
         id="path38" />
    </g>
    <g
       id="g44">
      <path
         d="m277.654 401.287c19.998-19.998 20.315-49.233 19.178-62.837-.374-4.477-3.902-8.046-8.379-8.422-13.219-1.111-41.302-.862-61.251 17.603-15.154 14.026-16.569 37.841-2.402 52.863 14.308 15.171 38.212 15.435 52.854.793z"
         fill="#cde2ff"
         id="path42" />
    </g>
    <g
       id="g48">
      <path
         d="m186.484 501.213c19.998-19.998 20.315-49.233 19.178-62.837-.374-4.477-3.902-8.046-8.379-8.422-13.219-1.111-41.302-.862-61.251 17.603-15.154 14.026-16.569 37.841-2.402 52.863 14.308 15.171 38.212 15.435 52.854.793z"
         fill="#cde2ff"
         id="path46" />
    </g>
    <g
       id="g52">
      <path
         d="m126.033 401.287c19.998-19.998 20.315-49.233 19.178-62.837-.374-4.477-3.902-8.046-8.379-8.422-13.219-1.111-41.302-.862-61.251 17.603-15.154 14.026-16.569 37.841-2.402 52.863 14.308 15.171 38.212 15.435 52.854.793z"
         fill="#cde2ff"
         id="path50" />
    </g>
    <g
       id="g56">
      <path
         d="m112.523 400.495c-14.168-15.021-12.752-38.837 2.402-52.863 8.369-7.746 18.168-12.279 27.701-14.858-1.495-1.538-3.521-2.555-5.794-2.746-13.219-1.111-41.302-.862-61.251 17.603-15.154 14.026-16.569 37.841-2.402 52.863 12.382 13.128 31.946 15.084 46.479 5.886-2.555-1.618-4.957-3.577-7.135-5.885z"
         fill="#b2d3ff"
         id="path54" />
    </g>
    <g
       id="g60">
      <path
         d="m172.974 500.427c-14.168-15.021-12.752-38.837 2.402-52.863 8.369-7.746 18.168-12.279 27.701-14.858-1.495-1.538-3.521-2.555-5.794-2.746-13.219-1.111-41.302-.862-61.251 17.603-15.154 14.026-16.569 37.841-2.402 52.863 12.382 13.128 31.946 15.084 46.479 5.886-2.556-1.618-4.958-3.577-7.135-5.885z"
         fill="#b2d3ff"
         id="path58" />
    </g>
    <g
       id="g64">
      <path
         d="m264.144 400.495c-14.168-15.021-12.752-38.837 2.402-52.863 8.369-7.746 18.168-12.279 27.701-14.858-1.495-1.538-3.521-2.555-5.794-2.746-13.219-1.111-41.302-.862-61.251 17.603-15.154 14.026-16.569 37.841-2.402 52.863 12.382 13.128 31.946 15.084 46.479 5.886-2.555-1.618-4.957-3.577-7.135-5.885z"
         fill="#b2d3ff"
         id="path62" />
    </g>
    <g
       id="g68">
      <path
         d="m415.765 400.495c-14.168-15.021-12.752-38.837 2.402-52.863 8.369-7.746 18.168-12.279 27.701-14.858-1.495-1.538-3.521-2.555-5.794-2.746-13.219-1.111-41.302-.862-61.251 17.603-15.154 14.026-16.569 37.841-2.402 52.863 12.382 13.128 31.946 15.084 46.479 5.886-2.555-1.618-4.957-3.577-7.135-5.885z"
         fill="#b2d3ff"
         id="path66" />
    </g>
    <g
       id="g72">
      <path
         d="m324.595 500.427c-14.168-15.021-12.752-38.837 2.402-52.863 8.369-7.746 18.168-12.279 27.701-14.858-1.495-1.538-3.521-2.555-5.794-2.746-13.219-1.111-41.302-.862-61.251 17.603-15.154 14.026-16.569 37.841-2.402 52.863 12.382 13.128 31.946 15.084 46.479 5.886-2.555-1.618-4.957-3.577-7.135-5.885z"
         fill="#b2d3ff"
         id="path70" />
    </g>
  </g>
</svg>
