<svg id="Capa_1" enable-background="new 0 0 512 512" height="512" viewBox="0 0 512 512" width="512" xmlns="http://www.w3.org/2000/svg"><g><g><path d="m459.44 226.64c1.695-6.585 2.597-13.489 2.597-20.604 0-45.516-36.898-82.414-82.414-82.414-.001-68.275-55.349-123.622-123.623-123.622s-123.622 55.347-123.622 123.622c-45.516 0-82.414 36.898-82.414 82.414 0 7.114.902 14.018 2.597 20.604h-21.656c-17.068 0-30.905 13.837-30.905 30.905 0 17.069 13.837 30.905 30.905 30.905h450.189c17.069 0 30.905-13.837 30.905-30.905 0-17.069-13.837-30.905-30.905-30.905z" fill="#e6f1ff"/></g><g><path d="m245.004 246.751c-63.122-5.565-112.626-58.562-112.626-123.13-45.516 0-82.414 36.898-82.414 82.414 0 7.114.902 14.018 2.597 20.604h-21.656c-17.068.001-30.905 13.838-30.905 30.906s13.837 30.905 30.905 30.905h273.823c-27.428.001-50.8-17.364-59.724-41.699z" fill="#cde2ff"/></g><g><g><g><ellipse cx="170.425" cy="184.334" fill="#ffa1ac" rx="31.575" ry="25.145"/></g><g><ellipse cx="341.575" cy="184.173" fill="#ffa1ac" rx="31.576" ry="25.145"/></g></g><g><path d="m188.79 165.203c-6.375 0-12.438-2.756-16.636-7.565-2.724-3.121-2.403-7.858.717-10.583 3.12-2.724 7.859-2.402 10.583.717 1.349 1.545 3.293 2.431 5.335 2.431h.006c2.043-.002 3.989-.892 5.337-2.441 2.719-3.125 7.458-3.453 10.581-.735 3.125 2.719 3.454 7.456.735 10.581-4.194 4.821-10.259 7.589-16.64 7.596-.004-.001-.012-.001-.018-.001z" fill="#495560"/></g><g><path d="m323.132 165.076c-6.373 0-12.433-2.756-16.632-7.564-2.725-3.12-2.404-7.858.716-10.583 3.121-2.725 7.858-2.403 10.583.716 1.349 1.545 3.293 2.431 5.334 2.431h.007c2.044-.002 3.99-.892 5.337-2.441 2.719-3.125 7.458-3.455 10.581-.736 3.125 2.719 3.455 7.456.736 10.581-4.194 4.822-10.26 7.59-16.641 7.596-.006 0-.014 0-.021 0z" fill="#495560"/></g><g><path d="m273.208 174.297c-.002 0-.004 0-.006 0l-34.386-.03c-4.142-.003-7.497-3.364-7.494-7.506.003-4.14 3.361-7.494 7.5-7.494h.006l34.386.03c4.142.003 7.497 3.364 7.494 7.506-.003 4.14-3.36 7.494-7.5 7.494z" fill="#495560"/></g></g><g><path d="m429.275 401.287c19.998-19.998 20.315-49.233 19.178-62.837-.374-4.477-3.902-8.046-8.379-8.422-13.219-1.111-41.302-.862-61.251 17.603-15.154 14.026-16.569 37.841-2.402 52.863 14.308 15.171 38.212 15.435 52.854.793z" fill="#cde2ff"/></g><g><path d="m338.105 501.213c19.998-19.998 20.315-49.233 19.178-62.837-.374-4.477-3.902-8.046-8.379-8.422-13.219-1.111-41.302-.862-61.251 17.603-15.154 14.026-16.569 37.841-2.402 52.863 14.308 15.171 38.212 15.435 52.854.793z" fill="#cde2ff"/></g><g><path d="m277.654 401.287c19.998-19.998 20.315-49.233 19.178-62.837-.374-4.477-3.902-8.046-8.379-8.422-13.219-1.111-41.302-.862-61.251 17.603-15.154 14.026-16.569 37.841-2.402 52.863 14.308 15.171 38.212 15.435 52.854.793z" fill="#cde2ff"/></g><g><path d="m186.484 501.213c19.998-19.998 20.315-49.233 19.178-62.837-.374-4.477-3.902-8.046-8.379-8.422-13.219-1.111-41.302-.862-61.251 17.603-15.154 14.026-16.569 37.841-2.402 52.863 14.308 15.171 38.212 15.435 52.854.793z" fill="#cde2ff"/></g><g><path d="m126.033 401.287c19.998-19.998 20.315-49.233 19.178-62.837-.374-4.477-3.902-8.046-8.379-8.422-13.219-1.111-41.302-.862-61.251 17.603-15.154 14.026-16.569 37.841-2.402 52.863 14.308 15.171 38.212 15.435 52.854.793z" fill="#cde2ff"/></g><g><path d="m112.523 400.495c-14.168-15.021-12.752-38.837 2.402-52.863 8.369-7.746 18.168-12.279 27.701-14.858-1.495-1.538-3.521-2.555-5.794-2.746-13.219-1.111-41.302-.862-61.251 17.603-15.154 14.026-16.569 37.841-2.402 52.863 12.382 13.128 31.946 15.084 46.479 5.886-2.555-1.618-4.957-3.577-7.135-5.885z" fill="#b2d3ff"/></g><g><path d="m172.974 500.427c-14.168-15.021-12.752-38.837 2.402-52.863 8.369-7.746 18.168-12.279 27.701-14.858-1.495-1.538-3.521-2.555-5.794-2.746-13.219-1.111-41.302-.862-61.251 17.603-15.154 14.026-16.569 37.841-2.402 52.863 12.382 13.128 31.946 15.084 46.479 5.886-2.556-1.618-4.958-3.577-7.135-5.885z" fill="#b2d3ff"/></g><g><path d="m264.144 400.495c-14.168-15.021-12.752-38.837 2.402-52.863 8.369-7.746 18.168-12.279 27.701-14.858-1.495-1.538-3.521-2.555-5.794-2.746-13.219-1.111-41.302-.862-61.251 17.603-15.154 14.026-16.569 37.841-2.402 52.863 12.382 13.128 31.946 15.084 46.479 5.886-2.555-1.618-4.957-3.577-7.135-5.885z" fill="#b2d3ff"/></g><g><path d="m415.765 400.495c-14.168-15.021-12.752-38.837 2.402-52.863 8.369-7.746 18.168-12.279 27.701-14.858-1.495-1.538-3.521-2.555-5.794-2.746-13.219-1.111-41.302-.862-61.251 17.603-15.154 14.026-16.569 37.841-2.402 52.863 12.382 13.128 31.946 15.084 46.479 5.886-2.555-1.618-4.957-3.577-7.135-5.885z" fill="#b2d3ff"/></g><g><path d="m324.595 500.427c-14.168-15.021-12.752-38.837 2.402-52.863 8.369-7.746 18.168-12.279 27.701-14.858-1.495-1.538-3.521-2.555-5.794-2.746-13.219-1.111-41.302-.862-61.251 17.603-15.154 14.026-16.569 37.841-2.402 52.863 12.382 13.128 31.946 15.084 46.479 5.886-2.555-1.618-4.957-3.577-7.135-5.885z" fill="#b2d3ff"/></g></g></svg>