<svg id="Capa_1" enable-background="new 0 0 512 512" height="512" viewBox="0 0 512 512" width="512" xmlns="http://www.w3.org/2000/svg"><g><g><path d="m485.575 86.289h-.002c-9.984 1.688-16.696-9.937-10.242-17.74 7.444-9.001 6.822-22.187-1.437-30.446-8.259-8.259-21.445-8.882-30.446-1.438l-.001.001c-7.803 6.454-19.428-.258-17.74-10.242 1.947-11.517-5.185-22.625-16.468-25.648-11.282-3.023-23.013 3.031-27.086 13.978l-.001.002c-3.531 9.49-16.954 9.49-20.485 0-4.073-10.947-15.803-17.001-27.086-13.978-11.282 3.023-18.414 14.131-16.468 25.648v.002c1.688 9.984-9.937 16.696-17.74 10.242-9.001-7.444-22.187-6.822-30.446 1.437-8.259 8.259-8.882 21.445-1.438 30.446l.001.001c6.454 7.803-.258 19.428-10.242 17.74-11.517-1.947-22.625 5.186-25.648 16.468-3.023 11.282 3.031 23.013 13.978 27.086l.002.001c9.49 3.531 9.49 16.954 0 20.485-10.947 4.073-17.001 15.803-13.978 27.086 3.023 11.282 14.131 18.414 25.648 16.468h.002c9.984-1.688 16.696 9.937 10.242 17.74-7.444 9.001-6.822 22.187 1.437 30.446 8.259 8.259 21.445 8.882 30.446 1.438l.001-.001c7.803-6.454 19.428.258 17.74 10.242-1.947 11.517 5.185 22.625 16.468 25.648 11.282 3.023 23.013-3.031 27.085-13.978l.001-.002c3.531-9.49 16.954-9.49 20.485 0 4.073 10.947 15.803 17.001 27.086 13.978 11.282-3.023 18.414-14.131 16.468-25.648v-.002c-1.688-9.984 9.938-16.696 17.74-10.242 9.001 7.444 22.187 6.822 30.446-1.437 8.259-8.259 8.882-21.445 1.438-30.446l-.001-.001c-6.454-7.803.258-19.428 10.242-17.74 11.517 1.947 22.625-5.186 25.648-16.468 3.023-11.282-3.031-23.013-13.978-27.086l-.002-.001c-9.49-3.531-9.49-16.954 0-20.485 10.947-4.073 17.001-15.803 13.978-27.086-3.022-11.283-14.13-18.415-25.647-16.468z" fill="#ffa973"/></g><g><path d="m408.117 170.119c-12.341-69.016-70.658-122.293-142.02-126.919-4.379 7.953-3.658 18.035 2.393 25.352l.001.001c6.453 7.803-.258 19.428-10.242 17.74-11.517-1.947-22.625 5.186-25.648 16.468-3.023 11.282 3.031 23.013 13.978 27.086l.002.001c9.49 3.531 9.49 16.954 0 20.485-10.947 4.073-17.001 15.803-13.978 27.086 3.023 11.282 14.131 18.414 25.648 16.468h.002c9.984-1.688 16.696 9.937 10.242 17.74-7.444 9.001-6.822 22.187 1.438 30.446 8.259 8.259 21.445 8.882 30.446 1.438l.001-.001c7.803-6.454 19.428.258 17.74 10.242-1.947 11.517 5.185 22.625 16.468 25.648 11.282 3.023 23.013-3.031 27.086-13.978v-.002c3.531-9.49 16.954-9.49 20.485 0 4.073 10.947 15.803 17.001 27.086 13.978 11.282-3.023 18.414-14.131 16.468-25.648v-.002c-1.688-9.984 9.937-16.696 17.74-10.242 9.001 7.444 22.186 6.822 30.446-1.437 3.892-3.892 6.065-8.88 6.521-14.006-14.609-28.336-40.816-49.758-72.303-57.944z" fill="#ff9959"/></g><g><circle cx="371.913" cy="140.087" fill="#fcef92" r="82.414"/></g><g><path d="m371.913 222.502c29.06 0 54.589-15.054 69.263-37.776-10.043-6.524-21.17-11.516-33.059-14.607-7.895-44.15-34.605-81.858-71.508-104.512-27.85 13.225-47.111 41.599-47.111 74.48 0 45.517 36.898 82.415 82.415 82.415z" fill="#ffd883"/></g><g><path d="m459.44 300.415c1.695-6.585 2.597-13.489 2.597-20.604 0-45.516-36.898-82.414-82.414-82.414 0-68.274-55.347-123.622-123.622-123.622s-123.622 55.347-123.622 123.622c-45.516 0-82.414 36.898-82.414 82.414 0 7.114.902 14.018 2.597 20.604h-21.657c-17.068 0-30.905 13.837-30.905 30.905 0 17.069 13.837 30.905 30.905 30.905h450.189c17.069 0 30.905-13.837 30.905-30.905 0-17.069-13.837-30.905-30.905-30.905z" fill="#f2f6fc"/></g><g><path d="m245.004 320.526c-63.122-5.565-112.626-58.562-112.626-123.13-45.516 0-82.414 36.898-82.414 82.415 0 7.114.902 14.018 2.597 20.604h-21.656c-17.068 0-30.905 13.837-30.905 30.905s13.837 30.905 30.905 30.905h273.823c-27.428.001-50.8-17.364-59.724-41.699z" fill="#e9edf5"/></g><g><path d="m405.831 511.982c23.098-.676 40.823-20.641 39.931-43.732-1.175-30.398-23.2-52.819-34.539-62.399-3.841-3.245-9.455-3.213-13.295.034-11.665 9.865-34.548 33.251-34.548 64.9 0 23.173 19.125 41.879 42.451 41.197z" fill="#cde2ff"/></g><g><path d="m404.587 470.784c0-21.242 10.308-38.752 20.614-50.96-5.068-6.004-10.137-10.728-13.978-13.974-3.841-3.245-9.455-3.213-13.295.034-11.665 9.865-34.548 33.251-34.548 64.9 0 23.173 19.124 41.88 42.451 41.197 7.048-.206 13.591-2.216 19.262-5.555-12.262-7.14-20.506-20.428-20.506-35.642z" fill="#b2d3ff"/></g><g><path d="m148.62 470.784c0-31.649-22.883-55.035-34.548-64.9-3.839-3.247-9.454-3.279-13.295-.034-11.339 9.581-33.365 32.001-34.539 62.399-.892 23.091 16.833 43.056 39.931 43.732 23.326.683 42.451-18.023 42.451-41.197z" fill="#cde2ff"/></g><g><path d="m107.413 470.784c0-21.242 10.308-38.752 20.614-50.96-5.068-6.004-10.137-10.728-13.978-13.974-3.841-3.245-9.455-3.213-13.295.034-11.665 9.865-34.548 33.251-34.548 64.9 0 23.173 19.124 41.88 42.451 41.197 7.048-.206 13.591-2.216 19.262-5.555-12.263-7.14-20.506-20.428-20.506-35.642z" fill="#b2d3ff"/></g><g><path d="m297.207 470.784c0-31.649-22.883-55.035-34.548-64.9-3.839-3.247-9.454-3.279-13.295-.034-11.339 9.581-33.365 32.001-34.54 62.399-.892 23.091 16.833 43.056 39.931 43.732 23.328.683 42.452-18.023 42.452-41.197z" fill="#cde2ff"/></g><g><path d="m256 470.784c0-21.242 10.308-38.752 20.614-50.96-5.068-6.004-10.137-10.728-13.978-13.974-3.841-3.245-9.455-3.213-13.295.034-11.665 9.865-34.548 33.251-34.548 64.9 0 23.173 19.124 41.88 42.451 41.197 7.048-.206 13.591-2.216 19.262-5.555-12.263-7.14-20.506-20.428-20.506-35.642z" fill="#b2d3ff"/></g><g><g><g><ellipse cx="174.042" cy="259.172" fill="#ffa1ac" rx="30.241" ry="24.082"/></g><g><ellipse cx="337.958" cy="259.172" fill="#ffa1ac" rx="30.241" ry="24.082"/></g></g><g><path d="m191.667 243.49c-4.142 0-7.5-3.358-7.5-7.5v-12.362c0-4.142 3.358-7.5 7.5-7.5s7.5 3.358 7.5 7.5v12.362c0 4.142-3.358 7.5-7.5 7.5z" fill="#495560"/></g><g><path d="m320.333 243.49c-4.142 0-7.5-3.358-7.5-7.5v-12.362c0-4.142 3.358-7.5 7.5-7.5s7.5 3.358 7.5 7.5v12.362c0 4.142-3.357 7.5-7.5 7.5z" fill="#495560"/></g><g><path d="m256 250.849c-8.668 0-16.911-3.754-22.615-10.3-2.721-3.123-2.396-7.86.727-10.582s7.86-2.396 10.582.727c2.854 3.275 6.976 5.154 11.307 5.154s8.452-1.879 11.307-5.154c2.721-3.124 7.459-3.448 10.582-.727s3.448 7.459.727 10.582c-5.706 6.546-13.949 10.3-22.617 10.3z" fill="#495560"/></g></g></g></svg>