<?xml version="1.0" encoding="UTF-8" standalone="no"?>
<svg
   xmlns:dc="http://purl.org/dc/elements/1.1/"
   xmlns:cc="http://creativecommons.org/ns#"
   xmlns:rdf="http://www.w3.org/1999/02/22-rdf-syntax-ns#"
   xmlns:svg="http://www.w3.org/2000/svg"
   xmlns="http://www.w3.org/2000/svg"
   xmlns:sodipodi="http://sodipodi.sourceforge.net/DTD/sodipodi-0.dtd"
   xmlns:inkscape="http://www.inkscape.org/namespaces/inkscape"
   id="Capa_1"
   enable-background="new 0 0 512 512"
   height="512"
   viewBox="0 0 512 512"
   width="512"
   version="1.1"
   sodipodi:docname="LightSnow.svg"
   inkscape:version="1.0.2-2 (e86c870879, 2021-01-15)">
  <metadata
     id="metadata51">
    <rdf:RDF>
      <cc:Work
         rdf:about="">
        <dc:format>image/svg+xml</dc:format>
        <dc:type
           rdf:resource="http://purl.org/dc/dcmitype/StillImage" />
      </cc:Work>
    </rdf:RDF>
  </metadata>
  <defs
     id="defs49" />
  <sodipodi:namedview
     pagecolor="#ffffff"
     bordercolor="#666666"
     borderopacity="1"
     objecttolerance="10"
     gridtolerance="10"
     guidetolerance="10"
     inkscape:pageopacity="0"
     inkscape:pageshadow="2"
     inkscape:window-width="2558"
     inkscape:window-height="1368"
     id="namedview47"
     showgrid="false"
     inkscape:zoom="1.96875"
     inkscape:cx="256"
     inkscape:cy="256"
     inkscape:window-x="1273"
     inkscape:window-y="1080"
     inkscape:window-maximized="0"
     inkscape:current-layer="g18" />
  <g
     id="g44">
    <g
       id="g4">
      <path
         d="m456.46 223.32c1.67-6.489 2.559-13.292 2.559-20.302 0-44.85-36.358-81.207-81.207-81.207-.001-67.274-54.538-121.811-121.812-121.811s-121.811 54.537-121.811 121.811c-44.85 0-81.207 36.358-81.207 81.207 0 7.01.888 13.813 2.559 20.302h-21.338c-16.819 0-30.453 13.634-30.453 30.453 0 16.819 13.634 30.453 30.453 30.453h443.595c16.819 0 30.453-13.634 30.453-30.453 0-16.819-13.634-30.453-30.453-30.453z"
         fill="#f2f6fc"
         id="path2" />
    </g>
    <g
       id="g8">
      <path
         d="m245.165 243.137c-62.197-5.484-110.976-57.704-110.976-121.326-44.85 0-81.207 36.358-81.207 81.207 0 7.01.888 13.813 2.559 20.302h-21.338c-16.819 0-30.453 13.634-30.453 30.453s13.634 30.453 30.453 30.453h269.812c-27.027-.001-50.057-17.111-58.85-41.089z"
         fill="#e9edf5"
         id="path6" />
    </g>
    <g
       id="g18">
      <g
         fill="#bfe1ff"
         id="g16">
        <path
           d="m461.403 388.662-17.072-9.857v-14.181l17.072-9.857c3.587-2.071 4.816-6.658 2.745-10.245s-6.659-4.817-10.245-2.745l-17.072 9.857-12.281-7.091v-19.713c0-4.142-3.358-7.5-7.5-7.5s-7.5 3.358-7.5 7.5v19.713l-12.281 7.091-17.073-9.857c-3.588-2.073-8.175-.842-10.245 2.745-2.071 3.587-.842 8.174 2.745 10.245l17.073 9.857v14.181l-17.073 9.857c-3.587 2.071-4.816 6.658-2.745 10.245 1.389 2.406 3.91 3.751 6.502 3.751 1.272 0 2.562-.324 3.743-1.006l17.073-9.857 12.281 7.09v19.714c0 4.142 3.358 7.5 7.5 7.5s7.5-3.358 7.5-7.5v-19.714l12.281-7.09 17.072 9.857c1.181.682 2.471 1.006 3.743 1.006 2.592 0 5.113-1.345 6.502-3.751 2.072-3.587.843-8.174-2.745-10.245zm-32.072-9.857-12.281 7.09-12.281-7.09v-14.181l12.281-7.091 12.281 7.091z"
           id="path12" />
        <path
           d="m139.304 354.767c3.587-2.071 4.816-6.658 2.745-10.245s-6.659-4.817-10.245-2.745l-17.073 9.857-12.281-7.091v-19.713c0-4.142-3.358-7.5-7.5-7.5s-7.5 3.358-7.5 7.5v19.713l-12.281 7.091-17.072-9.857c-3.588-2.073-8.175-.843-10.245 2.745-2.071 3.587-.842 8.174 2.745 10.245l17.072 9.857v14.181l-17.072 9.857c-3.587 2.071-4.816 6.658-2.745 10.245 1.389 2.406 3.91 3.751 6.502 3.751 1.272 0 2.562-.324 3.743-1.006l17.072-9.857 12.281 7.09v19.714c0 4.142 3.358 7.5 7.5 7.5s7.5-3.358 7.5-7.5v-19.714l12.281-7.09 17.073 9.857c1.181.682 2.471 1.006 3.743 1.006 2.592 0 5.113-1.346 6.502-3.751 2.071-3.587.842-8.174-2.745-10.245l-17.073-9.857v-14.181zm-32.073 24.038-12.281 7.09-12.281-7.09v-14.181l12.281-7.091 12.281 7.091z"
           id="path14" />
      </g>
    </g>
    <g
       id="g42">
      <g
         id="g32">
        <g
           id="g22">
          <ellipse
             cx="175.153"
             cy="182.655"
             fill="#ffa1ac"
             rx="29.831"
             ry="23.756"
             id="ellipse20" />
        </g>
        <g
           id="g26">
          <ellipse
             cx="336.847"
             cy="182.655"
             fill="#ffa1ac"
             rx="29.831"
             ry="23.756"
             id="ellipse24" />
        </g>
        <g
           id="g30">
          <path
             d="m280.051 164.403c0-14.864-10.768-16.26-24.051-16.26s-24.051 1.396-24.051 16.26 10.768 26.913 24.051 26.913 24.051-12.05 24.051-26.913z"
             fill="#495560"
             id="path28" />
        </g>
      </g>
      <g
         id="g36">
        <path
           d="m180.14 161.794c-4.142 0-7.5-3.358-7.5-7.5v-12.181c0-4.142 3.358-7.5 7.5-7.5s7.5 3.358 7.5 7.5v12.181c0 4.142-3.358 7.5-7.5 7.5z"
           fill="#495560"
           id="path34" />
      </g>
      <g
         id="g40">
        <path
           d="m331.86 161.794c-4.142 0-7.5-3.358-7.5-7.5v-12.181c0-4.142 3.358-7.5 7.5-7.5s7.5 3.358 7.5 7.5v12.181c0 4.142-3.358 7.5-7.5 7.5z"
           fill="#495560"
           id="path38" />
      </g>
    </g>
  </g>
</svg>
