<svg id="Capa_1" enable-background="new 0 0 512 512" height="512" viewBox="0 0 512 512" width="512" xmlns="http://www.w3.org/2000/svg"><g><g><path d="m459.44 226.64c1.695-6.585 2.597-13.489 2.597-20.604 0-45.516-36.898-82.414-82.414-82.414-.001-68.275-55.349-123.622-123.623-123.622s-123.622 55.347-123.622 123.622c-45.516 0-82.414 36.898-82.414 82.414 0 7.114.902 14.018 2.597 20.604h-21.656c-17.068 0-30.905 13.837-30.905 30.905 0 17.069 13.837 30.905 30.905 30.905h450.189c17.069 0 30.905-13.837 30.905-30.905 0-17.069-13.837-30.905-30.905-30.905z" fill="#f2f6fc"/></g><g><path d="m245.004 246.751c-63.122-5.565-112.626-58.562-112.626-123.13-45.516 0-82.414 36.898-82.414 82.414 0 7.114.902 14.018 2.597 20.604h-21.656c-17.068.001-30.905 13.838-30.905 30.906s13.837 30.905 30.905 30.905h273.823c-27.428.001-50.8-17.364-59.724-41.699z" fill="#e9edf5"/></g><g><g><g><ellipse cx="174.042" cy="185.397" fill="#ffa1ac" rx="30.241" ry="24.082"/></g><g><ellipse cx="337.958" cy="185.397" fill="#ffa1ac" rx="30.241" ry="24.082"/></g></g><g><path d="m191.667 169.715c-4.142 0-7.5-3.358-7.5-7.5v-12.362c0-4.142 3.358-7.5 7.5-7.5s7.5 3.358 7.5 7.5v12.362c0 4.142-3.358 7.5-7.5 7.5z" fill="#495560"/></g><g><path d="m320.333 169.715c-4.142 0-7.5-3.358-7.5-7.5v-12.362c0-4.142 3.358-7.5 7.5-7.5s7.5 3.358 7.5 7.5v12.362c0 4.142-3.357 7.5-7.5 7.5z" fill="#495560"/></g><g><path d="m256 177.074c-8.668 0-16.911-3.754-22.615-10.3-2.721-3.123-2.396-7.86.727-10.582 3.123-2.721 7.86-2.396 10.582.727 2.854 3.275 6.976 5.154 11.307 5.154s8.452-1.879 11.307-5.154c2.721-3.124 7.459-3.448 10.582-.727s3.448 7.459.727 10.582c-5.706 6.546-13.949 10.3-22.617 10.3z" fill="#495560"/></g></g><g><g><path d="m380.866 438.148c23.098-.676 40.823-20.641 39.931-43.732-1.175-30.398-23.2-52.819-34.539-62.399-3.841-3.245-9.455-3.213-13.295.034-11.665 9.865-34.548 33.251-34.548 64.9-.001 23.173 19.124 41.879 42.451 41.197z" fill="#cde2ff"/></g><g><path d="m379.622 397.009c0-21.242 10.308-38.752 20.614-50.96-5.068-6.004-10.137-10.728-13.978-13.974-3.841-3.245-9.455-3.213-13.295.034-11.665 9.865-34.548 33.251-34.548 64.9 0 23.173 19.124 41.88 42.451 41.198 7.048-.206 13.591-2.216 19.262-5.555-12.263-7.141-20.506-20.429-20.506-35.643z" fill="#b2d3ff"/></g></g><g><g><path d="m133.622 438.148c23.098-.676 40.823-20.641 39.931-43.732-1.175-30.398-23.2-52.819-34.539-62.399-3.841-3.245-9.455-3.213-13.295.034-11.665 9.865-34.548 33.251-34.548 64.9 0 23.173 19.124 41.879 42.451 41.197z" fill="#cde2ff"/></g><g><path d="m132.378 397.009c0-21.242 10.308-38.752 20.614-50.96-5.068-6.004-10.137-10.728-13.978-13.974-3.841-3.245-9.455-3.213-13.295.034-11.665 9.865-34.548 33.251-34.548 64.9 0 23.173 19.124 41.88 42.451 41.198 7.048-.206 13.591-2.216 19.262-5.555-12.263-7.141-20.506-20.429-20.506-35.643z" fill="#b2d3ff"/></g></g><g><g><path d="m297.207 470.784c0-31.649-22.883-55.035-34.548-64.9-3.839-3.247-9.454-3.279-13.295-.034-11.339 9.581-33.365 32.001-34.54 62.399-.892 23.091 16.833 43.056 39.931 43.732 23.328.683 42.452-18.023 42.452-41.197z" fill="#cde2ff"/></g><g><path d="m256 470.784c0-21.242 10.308-38.752 20.614-50.96-5.068-6.004-10.137-10.728-13.978-13.974-3.841-3.245-9.455-3.213-13.295.034-11.665 9.865-34.548 33.251-34.548 64.9 0 23.173 19.124 41.88 42.451 41.197 7.048-.206 13.591-2.216 19.262-5.555-12.263-7.14-20.506-20.428-20.506-35.642z" fill="#b2d3ff"/></g></g><g><circle cx="256" cy="357.929" fill="#b2d3ff" r="7.726"/></g><g><circle cx="132.378" cy="483.67" fill="#b2d3ff" r="7.726"/></g><g><circle cx="379.622" cy="483.67" fill="#b2d3ff" r="7.726"/></g></g></svg>