<?xml version="1.0" encoding="UTF-8" standalone="no"?>
<svg
   xmlns:dc="http://purl.org/dc/elements/1.1/"
   xmlns:cc="http://creativecommons.org/ns#"
   xmlns:rdf="http://www.w3.org/1999/02/22-rdf-syntax-ns#"
   xmlns:svg="http://www.w3.org/2000/svg"
   xmlns="http://www.w3.org/2000/svg"
   xmlns:sodipodi="http://sodipodi.sourceforge.net/DTD/sodipodi-0.dtd"
   xmlns:inkscape="http://www.inkscape.org/namespaces/inkscape"
   id="Capa_1"
   enable-background="new 0 0 512 512"
   height="512"
   viewBox="0 0 512 512"
   width="512"
   version="1.1"
   sodipodi:docname="LightSnow_noFace.svg"
   inkscape:version="1.0.2-2 (e86c870879, 2021-01-15)">
  <metadata
     id="metadata51">
    <rdf:RDF>
      <cc:Work
         rdf:about="">
        <dc:format>image/svg+xml</dc:format>
        <dc:type
           rdf:resource="http://purl.org/dc/dcmitype/StillImage" />
      </cc:Work>
    </rdf:RDF>
  </metadata>
  <defs
     id="defs49" />
  <sodipodi:namedview
     pagecolor="#ffffff"
     bordercolor="#666666"
     borderopacity="1"
     objecttolerance="10"
     gridtolerance="10"
     guidetolerance="10"
     inkscape:pageopacity="0"
     inkscape:pageshadow="2"
     inkscape:window-width="1459"
     inkscape:window-height="857"
     id="namedview47"
     showgrid="false"
     inkscape:zoom="1.96875"
     inkscape:cx="256"
     inkscape:cy="256"
     inkscape:window-x="2984"
     inkscape:window-y="1130"
     inkscape:window-maximized="0"
     inkscape:current-layer="g44" />
  <g
     id="g44">
    <g
       id="g4">
      <path
         d="m456.46 223.32c1.67-6.489 2.559-13.292 2.559-20.302 0-44.85-36.358-81.207-81.207-81.207-.001-67.274-54.538-121.811-121.812-121.811s-121.811 54.537-121.811 121.811c-44.85 0-81.207 36.358-81.207 81.207 0 7.01.888 13.813 2.559 20.302h-21.338c-16.819 0-30.453 13.634-30.453 30.453 0 16.819 13.634 30.453 30.453 30.453h443.595c16.819 0 30.453-13.634 30.453-30.453 0-16.819-13.634-30.453-30.453-30.453z"
         fill="#f2f6fc"
         id="path2" />
    </g>
    <g
       id="g8">
      <path
         d="m245.165 243.137c-62.197-5.484-110.976-57.704-110.976-121.326-44.85 0-81.207 36.358-81.207 81.207 0 7.01.888 13.813 2.559 20.302h-21.338c-16.819 0-30.453 13.634-30.453 30.453s13.634 30.453 30.453 30.453h269.812c-27.027-.001-50.057-17.111-58.85-41.089z"
         fill="#e9edf5"
         id="path6" />
    </g>
    <g
       id="g18">
      <path
         d="m331.977 432.288c-8.577-4.952-19.07-3.654-26.188 2.462l-17.234-9.95v-20.27l17.229-9.947c4.156 3.572 9.463 5.5 14.869 5.5 3.853 0 7.755-.979 11.325-3.041 5.257-3.035 9.018-7.936 10.589-13.8 1.571-5.863.765-11.988-2.271-17.245s-7.936-9.018-13.799-10.589c-5.864-1.57-11.988-.764-17.245 2.271s-9.018 7.936-10.589 13.799c-.899 3.355-.994 6.792-.364 10.106l-17.244 9.955-17.555-10.135v-19.9c8.856-3.106 15.227-11.545 15.227-21.449 0-12.531-10.195-22.726-22.727-22.726s-22.727 10.195-22.727 22.726c0 9.904 6.37 18.343 15.227 21.449v19.9l-17.554 10.135-17.244-9.955c.63-3.315.535-6.751-.364-10.106-1.571-5.863-5.332-10.764-10.589-13.799s-11.379-3.841-17.245-2.271c-5.863 1.571-10.764 5.332-13.799 10.589s-3.842 11.382-2.271 17.245c1.571 5.864 5.332 10.765 10.589 13.8 3.57 2.062 7.472 3.041 11.325 3.041 5.404-.001 10.712-1.928 14.868-5.5l17.229 9.947v20.27l-17.234 9.95c-7.117-6.117-17.61-7.414-26.188-2.462-5.257 3.035-9.018 7.936-10.589 13.799-1.571 5.864-.765 11.988 2.271 17.245 3.035 5.257 7.936 9.018 13.799 10.589 1.958.525 3.945.784 5.919.784 3.938 0 7.824-1.033 11.326-3.055 5.257-3.035 9.018-7.936 10.589-13.799.899-3.355.994-6.791.364-10.106l17.244-9.956 17.554 10.135v19.9c-8.856 3.106-15.227 11.545-15.227 21.449 0 12.532 10.196 22.727 22.727 22.727s22.727-10.195 22.727-22.727c0-9.904-6.37-18.343-15.227-21.449v-19.9l17.554-10.135 17.244 9.956c-.63 3.315-.535 6.751.364 10.106 1.571 5.864 5.332 10.764 10.588 13.799 3.502 2.022 7.388 3.055 11.327 3.055 1.974 0 3.961-.259 5.919-.784 5.863-1.571 10.764-5.332 13.799-10.589s3.842-11.381 2.271-17.245c-1.572-5.863-5.332-10.764-10.589-13.799zm-18.827-56.928c.534-1.994 1.812-3.66 3.6-4.692 1.19-.688 2.512-1.039 3.851-1.039.671 0 1.347.088 2.012.267 1.993.534 3.66 1.813 4.691 3.6 2.13 3.689.861 8.424-2.828 10.555-1.786 1.033-3.868 1.307-5.863.772-1.993-.534-3.66-1.813-4.691-3.601-1.032-1.786-1.306-3.868-.772-5.862zm-57.15-43.031c4.26 0 7.727 3.466 7.727 7.726s-3.466 7.727-7.727 7.727-7.727-3.466-7.727-7.727 3.467-7.726 7.727-7.726zm-62.614 52.494c-1.993.534-4.076.259-5.863-.772-3.689-2.13-4.958-6.865-2.828-10.555 1.032-1.787 2.698-3.066 4.691-3.6.666-.178 1.341-.267 2.012-.267 1.339 0 2.66.351 3.851 1.039 1.788 1.032 3.066 2.698 3.6 4.692.534 1.993.26 4.075-.772 5.863-1.031 1.787-2.698 3.066-4.691 3.6zm5.464 69.146c-.534 1.993-1.812 3.659-3.601 4.691-1.786 1.033-3.87 1.307-5.862.772-1.994-.534-3.66-1.812-4.692-3.6-1.032-1.787-1.306-3.869-.772-5.863.534-1.993 1.813-3.66 3.6-4.691 1.19-.688 2.512-1.039 3.851-1.039.671 0 1.347.088 2.012.267 1.993.534 3.66 1.813 4.691 3.601 1.033 1.787 1.307 3.869.773 5.862zm57.15 43.031c-4.26 0-7.727-3.466-7.727-7.727s3.466-7.726 7.727-7.726 7.727 3.466 7.727 7.726-3.467 7.727-7.727 7.727zm17.554-72.201-17.554 10.136-17.554-10.135v-20.27l17.554-10.135 17.554 10.135zm53.751 31.033c-1.032 1.788-2.698 3.066-4.692 3.6-1.994.533-4.076.26-5.862-.772-1.788-1.032-3.066-2.698-3.6-4.691s-.26-4.075.772-5.863c1.032-1.787 2.698-3.066 4.691-3.6.666-.178 1.341-.267 2.012-.267 1.339 0 2.66.352 3.851 1.039 1.787 1.032 3.066 2.698 3.6 4.691.534 1.994.259 4.076-.772 5.863z"
         fill="#a3d4ff"
         id="path10" />
      <g
         fill="#bfe1ff"
         id="g16">
        <path
           d="m461.403 388.662-17.072-9.857v-14.181l17.072-9.857c3.587-2.071 4.816-6.658 2.745-10.245s-6.659-4.817-10.245-2.745l-17.072 9.857-12.281-7.091v-19.713c0-4.142-3.358-7.5-7.5-7.5s-7.5 3.358-7.5 7.5v19.713l-12.281 7.091-17.073-9.857c-3.588-2.073-8.175-.842-10.245 2.745-2.071 3.587-.842 8.174 2.745 10.245l17.073 9.857v14.181l-17.073 9.857c-3.587 2.071-4.816 6.658-2.745 10.245 1.389 2.406 3.91 3.751 6.502 3.751 1.272 0 2.562-.324 3.743-1.006l17.073-9.857 12.281 7.09v19.714c0 4.142 3.358 7.5 7.5 7.5s7.5-3.358 7.5-7.5v-19.714l12.281-7.09 17.072 9.857c1.181.682 2.471 1.006 3.743 1.006 2.592 0 5.113-1.345 6.502-3.751 2.072-3.587.843-8.174-2.745-10.245zm-32.072-9.857-12.281 7.09-12.281-7.09v-14.181l12.281-7.091 12.281 7.091z"
           id="path12" />
        <path
           d="m139.304 354.767c3.587-2.071 4.816-6.658 2.745-10.245s-6.659-4.817-10.245-2.745l-17.073 9.857-12.281-7.091v-19.713c0-4.142-3.358-7.5-7.5-7.5s-7.5 3.358-7.5 7.5v19.713l-12.281 7.091-17.072-9.857c-3.588-2.073-8.175-.843-10.245 2.745-2.071 3.587-.842 8.174 2.745 10.245l17.072 9.857v14.181l-17.072 9.857c-3.587 2.071-4.816 6.658-2.745 10.245 1.389 2.406 3.91 3.751 6.502 3.751 1.272 0 2.562-.324 3.743-1.006l17.072-9.857 12.281 7.09v19.714c0 4.142 3.358 7.5 7.5 7.5s7.5-3.358 7.5-7.5v-19.714l12.281-7.09 17.073 9.857c1.181.682 2.471 1.006 3.743 1.006 2.592 0 5.113-1.346 6.502-3.751 2.071-3.587.842-8.174-2.745-10.245l-17.073-9.857v-14.181zm-32.073 24.038-12.281 7.09-12.281-7.09v-14.181l12.281-7.091 12.281 7.091z"
           id="path14" />
      </g>
    </g>
  </g>
</svg>
