<?xml version="1.0" encoding="UTF-8" standalone="no"?>
<svg
   xmlns:dc="http://purl.org/dc/elements/1.1/"
   xmlns:cc="http://creativecommons.org/ns#"
   xmlns:rdf="http://www.w3.org/1999/02/22-rdf-syntax-ns#"
   xmlns:svg="http://www.w3.org/2000/svg"
   xmlns="http://www.w3.org/2000/svg"
   xmlns:sodipodi="http://sodipodi.sourceforge.net/DTD/sodipodi-0.dtd"
   xmlns:inkscape="http://www.inkscape.org/namespaces/inkscape"
   id="Capa_1"
   enable-background="new 0 0 512 512"
   height="512"
   viewBox="0 0 512 512"
   width="512"
   version="1.1"
   sodipodi:docname="ModerateRain_noFace.svg"
   inkscape:version="1.0.2-2 (e86c870879, 2021-01-15)">
  <metadata
     id="metadata83">
    <rdf:RDF>
      <cc:Work
         rdf:about="">
        <dc:format>image/svg+xml</dc:format>
        <dc:type
           rdf:resource="http://purl.org/dc/dcmitype/StillImage" />
      </cc:Work>
    </rdf:RDF>
  </metadata>
  <defs
     id="defs81" />
  <sodipodi:namedview
     pagecolor="#ffffff"
     bordercolor="#666666"
     borderopacity="1"
     objecttolerance="10"
     gridtolerance="10"
     guidetolerance="10"
     inkscape:pageopacity="0"
     inkscape:pageshadow="2"
     inkscape:window-width="2558"
     inkscape:window-height="1368"
     id="namedview79"
     showgrid="false"
     inkscape:zoom="1.96875"
     inkscape:cx="256"
     inkscape:cy="256"
     inkscape:window-x="1273"
     inkscape:window-y="1080"
     inkscape:window-maximized="0"
     inkscape:current-layer="g76" />
  <g
     id="g76">
    <g
       id="g4">
      <path
         d="m459.44 226.64c1.695-6.585 2.597-13.489 2.597-20.604 0-45.516-36.898-82.414-82.414-82.414-.001-68.275-55.349-123.622-123.623-123.622s-123.622 55.347-123.622 123.622c-45.516 0-82.414 36.898-82.414 82.414 0 7.114.902 14.018 2.597 20.604h-21.656c-17.068 0-30.905 13.837-30.905 30.905 0 17.069 13.837 30.905 30.905 30.905h450.189c17.069 0 30.905-13.837 30.905-30.905 0-17.069-13.837-30.905-30.905-30.905z"
         fill="#f2f6fc"
         id="path2" />
    </g>
    <g
       id="g8">
      <path
         d="m245.004 246.751c-63.122-5.565-112.626-58.562-112.626-123.13-45.516 0-82.414 36.898-82.414 82.414 0 7.114.902 14.018 2.597 20.604h-21.656c-17.068.001-30.905 13.838-30.905 30.906s13.837 30.905 30.905 30.905h273.823c-27.428.001-50.8-17.364-59.724-41.699z"
         fill="#e9edf5"
         id="path6" />
    </g>
    <g
       id="g42">
      <g
         id="g36">
        <path
           d="m380.866 438.148c23.098-.676 40.823-20.641 39.931-43.732-1.175-30.398-23.2-52.819-34.539-62.399-3.841-3.245-9.455-3.213-13.295.034-11.665 9.865-34.548 33.251-34.548 64.9-.001 23.173 19.124 41.879 42.451 41.197z"
           fill="#cde2ff"
           id="path34" />
      </g>
      <g
         id="g40">
        <path
           d="m379.622 397.009c0-21.242 10.308-38.752 20.614-50.96-5.068-6.004-10.137-10.728-13.978-13.974-3.841-3.245-9.455-3.213-13.295.034-11.665 9.865-34.548 33.251-34.548 64.9 0 23.173 19.124 41.88 42.451 41.198 7.048-.206 13.591-2.216 19.262-5.555-12.263-7.141-20.506-20.429-20.506-35.643z"
           fill="#b2d3ff"
           id="path38" />
      </g>
    </g>
    <g
       id="g52">
      <g
         id="g46">
        <path
           d="m133.622 438.148c23.098-.676 40.823-20.641 39.931-43.732-1.175-30.398-23.2-52.819-34.539-62.399-3.841-3.245-9.455-3.213-13.295.034-11.665 9.865-34.548 33.251-34.548 64.9 0 23.173 19.124 41.879 42.451 41.197z"
           fill="#cde2ff"
           id="path44" />
      </g>
      <g
         id="g50">
        <path
           d="m132.378 397.009c0-21.242 10.308-38.752 20.614-50.96-5.068-6.004-10.137-10.728-13.978-13.974-3.841-3.245-9.455-3.213-13.295.034-11.665 9.865-34.548 33.251-34.548 64.9 0 23.173 19.124 41.88 42.451 41.198 7.048-.206 13.591-2.216 19.262-5.555-12.263-7.141-20.506-20.429-20.506-35.643z"
           fill="#b2d3ff"
           id="path48" />
      </g>
    </g>
    <g
       id="g62">
      <g
         id="g56">
        <path
           d="m297.207 470.784c0-31.649-22.883-55.035-34.548-64.9-3.839-3.247-9.454-3.279-13.295-.034-11.339 9.581-33.365 32.001-34.54 62.399-.892 23.091 16.833 43.056 39.931 43.732 23.328.683 42.452-18.023 42.452-41.197z"
           fill="#cde2ff"
           id="path54" />
      </g>
      <g
         id="g60">
        <path
           d="m256 470.784c0-21.242 10.308-38.752 20.614-50.96-5.068-6.004-10.137-10.728-13.978-13.974-3.841-3.245-9.455-3.213-13.295.034-11.665 9.865-34.548 33.251-34.548 64.9 0 23.173 19.124 41.88 42.451 41.197 7.048-.206 13.591-2.216 19.262-5.555-12.263-7.14-20.506-20.428-20.506-35.642z"
           fill="#b2d3ff"
           id="path58" />
      </g>
    </g>
    <g
       id="g66">
      <circle
         cx="256"
         cy="357.929"
         fill="#b2d3ff"
         r="7.726"
         id="circle64" />
    </g>
    <g
       id="g70">
      <circle
         cx="132.378"
         cy="483.67"
         fill="#b2d3ff"
         r="7.726"
         id="circle68" />
    </g>
    <g
       id="g74">
      <circle
         cx="379.622"
         cy="483.67"
         fill="#b2d3ff"
         r="7.726"
         id="circle72" />
    </g>
  </g>
</svg>
