<?xml version="1.0" encoding="UTF-8" standalone="no"?>
<svg
   xmlns:dc="http://purl.org/dc/elements/1.1/"
   xmlns:cc="http://creativecommons.org/ns#"
   xmlns:rdf="http://www.w3.org/1999/02/22-rdf-syntax-ns#"
   xmlns:svg="http://www.w3.org/2000/svg"
   xmlns="http://www.w3.org/2000/svg"
   xmlns:sodipodi="http://sodipodi.sourceforge.net/DTD/sodipodi-0.dtd"
   xmlns:inkscape="http://www.inkscape.org/namespaces/inkscape"
   id="Capa_1"
   enable-background="new 0 0 512 512"
   height="512"
   viewBox="0 0 512 512"
   width="512"
   version="1.1"
   sodipodi:docname="NearlyClearSky_noFace.svg"
   inkscape:version="1.0.2-2 (e86c870879, 2021-01-15)">
  <metadata
     id="metadata53">
    <rdf:RDF>
      <cc:Work
         rdf:about="">
        <dc:format>image/svg+xml</dc:format>
        <dc:type
           rdf:resource="http://purl.org/dc/dcmitype/StillImage" />
      </cc:Work>
    </rdf:RDF>
  </metadata>
  <defs
     id="defs51" />
  <sodipodi:namedview
     pagecolor="#ffffff"
     bordercolor="#666666"
     borderopacity="1"
     objecttolerance="10"
     gridtolerance="10"
     guidetolerance="10"
     inkscape:pageopacity="0"
     inkscape:pageshadow="2"
     inkscape:window-width="2558"
     inkscape:window-height="1368"
     id="namedview49"
     showgrid="false"
     inkscape:zoom="1.96875"
     inkscape:cx="256"
     inkscape:cy="256"
     inkscape:window-x="1273"
     inkscape:window-y="1080"
     inkscape:window-maximized="0"
     inkscape:current-layer="g44" />
  <g
     id="g46">
    <g
       id="g4">
      <path
         d="m67.305 282.973c-23.422 10.934-13.981 46.21 11.771 43.985l.074-.006-38.361 27.268c-9.52 6.767-12.332 19.665-6.491 29.78 5.84 10.115 18.416 14.13 29.036 9.268l42.738-19.561h299.799l.037.026-.037-.053 42.795 19.588c10.621 4.861 23.196.847 29.036-9.268 5.84-10.115 3.029-23.013-6.491-29.78l-38.31-27.232c25.75 2.242 35.213-33.029 11.798-43.977l-.068-.032 46.856-4.434c11.629-1.101 20.513-10.865 20.513-22.545 0-11.68-8.884-21.444-20.512-22.545l-46.793-4.428c23.421-10.934 13.981-46.21-11.771-43.984l-.074.006 38.361-27.268c9.52-6.767 12.332-19.665 6.491-29.78-5.84-10.115-18.416-14.13-29.036-9.268l-42.738 19.561c14.816-21.179-10.997-47.009-32.186-32.206l-.061.043 19.587-42.795c4.861-10.621.847-23.196-9.268-29.036-10.115-5.84-23.013-3.029-29.78 6.491l-27.232 38.309c2.242-25.75-33.029-35.213-43.977-11.798l-.032.068-4.434-46.856c-1.101-11.63-10.865-20.514-22.545-20.514s-21.444 8.884-22.545 20.512l-4.428 46.793c-10.934-23.421-46.21-13.981-43.984 11.771l.006.074-27.269-38.361c-6.767-9.52-19.665-12.332-29.78-6.491s-14.13 18.416-9.268 29.036l19.561 42.738c-21.179-14.817-47.01 10.997-32.206 32.186l.043.061-42.795-19.588c-10.621-4.861-23.196-.847-29.036 9.268-5.84 10.115-3.029 23.013 6.491 29.78l38.31 27.232c-25.75-2.242-35.213 33.029-11.798 43.977l.068.032-46.856 4.434c-11.63 1.102-20.514 10.866-20.514 22.546 0 11.68 8.884 21.444 20.512 22.545z"
         fill="#ffa973"
         id="path2" />
    </g>
    <g
       id="g8">
      <circle
         cx="256"
         cy="256"
         fill="#fcef92"
         r="144.225"
         id="circle6" />
    </g>
    <g
       id="g12">
      <path
         d="m174.441 256c0-68.892 48.306-126.492 112.892-140.802-10.089-2.235-20.572-3.424-31.333-3.424-79.653 0-144.225 64.572-144.225 144.225s64.572 144.226 144.225 144.226c10.762 0 21.244-1.188 31.333-3.424-64.585-14.309-112.892-71.909-112.892-140.801z"
         fill="#ffd883"
         id="path10" />
    </g>
    <g
       id="g16">
      <path
         d="m459.44 450.189c1.695-6.585 2.597-13.489 2.597-20.604 0-45.516-36.898-82.414-82.414-82.414 0-68.274-55.347-123.622-123.622-123.622s-123.622 55.347-123.622 123.622c-45.516 0-82.414 36.898-82.414 82.414 0 7.114.902 14.018 2.597 20.604h-21.657c-17.068 0-30.905 13.837-30.905 30.906 0 17.068 13.837 30.905 30.905 30.905h450.189c17.069 0 30.906-13.837 30.906-30.905 0-17.069-13.837-30.905-30.905-30.905h-21.655z"
         fill="#f2f6fc"
         id="path14" />
    </g>
    <g
       id="g20">
      <path
         d="m245.004 470.301c-63.122-5.565-112.626-58.562-112.626-123.13-45.516 0-82.414 36.898-82.414 82.414 0 7.114.902 14.018 2.597 20.604h-21.656c-17.068 0-30.905 13.837-30.905 30.906s13.837 30.905 30.905 30.905h273.823c-27.428 0-50.8-17.364-59.724-41.699z"
         fill="#e9edf5"
         id="path18" />
    </g>
    <g
       id="g44" />
  </g>
</svg>
