<svg id="Capa_1" enable-background="new 0 0 512 512" height="512" viewBox="0 0 512 512" width="512" xmlns="http://www.w3.org/2000/svg"><g><g><path d="m456.494 223.358c1.67-6.49 2.559-13.294 2.559-20.305 0-44.857-36.364-81.221-81.221-81.221 0-67.286-54.546-121.832-121.832-121.832s-121.832 54.546-121.832 121.832c-44.857 0-81.221 36.364-81.221 81.221 0 7.011.889 13.815 2.559 20.305h-21.341c-16.821 0-30.458 13.636-30.458 30.458 0 16.821 13.636 30.458 30.458 30.458h443.671c16.821 0 30.458-13.637 30.458-30.458 0-16.821-13.636-30.458-30.458-30.458z" fill="#cdd2e1"/></g><g><path d="m245.163 243.179c-62.208-5.485-110.995-57.714-110.995-121.347-44.857 0-81.221 36.364-81.221 81.221 0 7.011.889 13.815 2.559 20.305h-21.341c-16.822 0-30.458 13.636-30.458 30.458s13.636 30.458 30.458 30.458h269.858c-27.031 0-50.065-17.113-58.86-41.095z" fill="#bec3d2"/></g><g><g><g><ellipse cx="171.664" cy="181.666" fill="#fff" rx="31.118" ry="24.781"/></g><g><ellipse cx="340.336" cy="181.506" fill="#fff" rx="31.118" ry="24.781"/></g><g><ellipse cx="255.989" cy="170.077" fill="#495560" rx="13.921" ry="15.965"/></g></g><g><path d="m189.763 162.92c-6.313 0-12.318-2.73-16.476-7.493-2.725-3.12-2.403-7.858.717-10.583 3.121-2.724 7.859-2.403 10.582.717 1.309 1.499 3.195 2.358 5.177 2.358h.006c1.983-.002 3.87-.865 5.177-2.367 2.718-3.126 7.455-3.455 10.581-.738 3.125 2.718 3.456 7.456.737 10.581-4.153 4.776-10.16 7.519-16.481 7.524-.008.001-.014.001-.02.001z" fill="#495560"/></g><g><path d="m322.16 162.795c-6.312 0-12.314-2.73-16.473-7.493-2.725-3.12-2.403-7.858.717-10.583 3.121-2.724 7.859-2.403 10.582.717 1.309 1.499 3.194 2.358 5.175 2.358h.007c1.983-.002 3.871-.865 5.179-2.368 2.719-3.125 7.456-3.454 10.581-.736 3.125 2.719 3.454 7.456.735 10.581-4.154 4.775-10.161 7.518-16.48 7.523-.008.001-.015.001-.023.001z" fill="#495560"/></g></g><g><path d="m441.715 384.197c0-27.871-20.152-48.466-30.424-57.153-3.381-2.859-8.326-2.888-11.708-.03-9.986 8.437-29.382 28.182-30.417 54.952-.786 20.335 14.824 37.917 35.165 38.512 20.542.6 37.384-15.873 37.384-36.281z" fill="#cde2ff"/></g><g><path d="m292.289 384.197c0-27.871-20.152-48.466-30.424-57.153-3.381-2.859-8.326-2.888-11.708-.03-9.986 8.437-29.382 28.182-30.417 54.952-.786 20.335 14.824 37.917 35.165 38.512 20.542.6 37.384-15.873 37.384-36.281z" fill="#cde2ff"/></g><g><path d="m142.863 384.197c0-27.871-20.152-48.466-30.424-57.153-3.381-2.859-8.326-2.888-11.708-.03-9.986 8.437-29.382 28.182-30.417 54.952-.786 20.335 14.824 37.917 35.165 38.512 20.542.6 37.384-15.873 37.384-36.281z" fill="#cde2ff"/></g><g><path d="m132.896 393.06c-20.341-.595-35.951-18.177-35.165-38.512.434-11.23 4.104-21.217 8.95-29.658-2.114-.03-4.234.673-5.951 2.124-9.986 8.437-29.383 28.182-30.417 54.952-.786 20.335 14.824 37.917 35.165 38.512 17.777.52 32.774-11.751 36.492-28.289-2.908.653-5.947.962-9.074.871z" fill="#b2d3ff"/></g><g><path d="m282.322 393.06c-20.341-.595-35.951-18.177-35.165-38.512.434-11.23 4.104-21.217 8.95-29.658-2.114-.03-4.234.673-5.951 2.124-9.986 8.437-29.382 28.182-30.417 54.952-.786 20.335 14.824 37.917 35.165 38.512 17.777.52 32.774-11.751 36.492-28.289-2.909.653-5.947.962-9.074.871z" fill="#b2d3ff"/></g><g><path d="m431.748 393.06c-20.341-.595-35.951-18.177-35.165-38.512.434-11.23 4.104-21.217 8.95-29.658-2.114-.03-4.234.673-5.951 2.124-9.986 8.437-29.383 28.182-30.417 54.952-.786 20.335 14.824 37.917 35.165 38.512 17.777.52 32.774-11.751 36.492-28.289-2.909.653-5.947.962-9.074.871z" fill="#b2d3ff"/></g><g fill="#bfe1ff"><path d="m220.207 450.079c3.587-2.071 4.816-6.658 2.745-10.245-2.07-3.588-6.659-4.816-10.245-2.745l-14.286 8.248-9.634-5.562v-16.496c0-4.142-3.357-7.5-7.5-7.5s-7.5 3.358-7.5 7.5v16.496l-9.634 5.562-14.286-8.248c-3.59-2.072-8.175-.842-10.245 2.745-2.071 3.587-.842 8.174 2.745 10.245l14.286 8.248v11.124l-14.286 8.248c-3.587 2.071-4.816 6.658-2.745 10.245 1.389 2.406 3.91 3.751 6.502 3.751 1.272 0 2.562-.324 3.743-1.006l14.286-8.248 9.634 5.562v16.497c0 4.142 3.357 7.5 7.5 7.5s7.5-3.358 7.5-7.5v-16.496l9.634-5.562 14.286 8.248c1.182.682 2.471 1.006 3.743 1.006 2.592 0 5.113-1.346 6.502-3.751 2.071-3.587.842-8.174-2.745-10.245l-14.286-8.248v-11.124zm-29.286 19.373-9.634 5.562-9.634-5.562v-11.125l9.634-5.562 9.634 5.562z"/><path d="m369.633 450.079c3.587-2.071 4.816-6.658 2.745-10.245-2.071-3.588-6.66-4.816-10.245-2.745l-14.286 8.248-9.634-5.562v-16.496c0-4.142-3.357-7.5-7.5-7.5s-7.5 3.358-7.5 7.5v16.496l-9.634 5.562-14.286-8.248c-3.589-2.072-8.176-.842-10.245 2.745-2.071 3.587-.842 8.174 2.745 10.245l14.286 8.248v11.124l-14.286 8.248c-3.587 2.071-4.816 6.658-2.745 10.245 1.389 2.406 3.91 3.751 6.502 3.751 1.272 0 2.562-.324 3.743-1.006l14.286-8.248 9.634 5.562v16.497c0 4.142 3.357 7.5 7.5 7.5s7.5-3.358 7.5-7.5v-16.496l9.634-5.562 14.286 8.248c1.182.682 2.471 1.006 3.743 1.006 2.592 0 5.113-1.346 6.502-3.751 2.071-3.587.842-8.174-2.745-10.245l-14.286-8.248v-11.124zm-29.286 19.373-9.634 5.562-9.634-5.562v-11.125l9.634-5.562 9.634 5.562z"/><circle cx="330.713" cy="372.689" r="7.614"/><circle cx="181.287" cy="372.689" r="7.614"/><circle cx="106.574" cy="463.889" r="7.614"/><circle cx="256" cy="463.889" r="7.614"/><circle cx="405.426" cy="463.889" r="7.614"/></g></g></svg>