<?xml version="1.0" encoding="UTF-8" standalone="no"?>
<svg
   xmlns:dc="http://purl.org/dc/elements/1.1/"
   xmlns:cc="http://creativecommons.org/ns#"
   xmlns:rdf="http://www.w3.org/1999/02/22-rdf-syntax-ns#"
   xmlns:svg="http://www.w3.org/2000/svg"
   xmlns="http://www.w3.org/2000/svg"
   xmlns:sodipodi="http://sodipodi.sourceforge.net/DTD/sodipodi-0.dtd"
   xmlns:inkscape="http://www.inkscape.org/namespaces/inkscape"
   id="Capa_1"
   enable-background="new 0 0 512 512"
   height="512"
   viewBox="0 0 512 512"
   width="512"
   version="1.1"
   sodipodi:docname="Thunder.svg"
   inkscape:version="1.0.2-2 (e86c870879, 2021-01-15)">
  <metadata
     id="metadata65">
    <rdf:RDF>
      <cc:Work
         rdf:about="">
        <dc:format>image/svg+xml</dc:format>
        <dc:type
           rdf:resource="http://purl.org/dc/dcmitype/StillImage" />
      </cc:Work>
    </rdf:RDF>
  </metadata>
  <defs
     id="defs63" />
  <sodipodi:namedview
     pagecolor="#ffffff"
     bordercolor="#666666"
     borderopacity="1"
     objecttolerance="10"
     gridtolerance="10"
     guidetolerance="10"
     inkscape:pageopacity="0"
     inkscape:pageshadow="2"
     inkscape:window-width="2558"
     inkscape:window-height="1368"
     id="namedview61"
     showgrid="false"
     inkscape:zoom="1.96875"
     inkscape:cx="256"
     inkscape:cy="256"
     inkscape:window-x="1273"
     inkscape:window-y="1080"
     inkscape:window-maximized="0"
     inkscape:current-layer="g58" />
  <g
     id="g58">
    <g
       id="g4">
      <path
         d="m459.44 226.64c1.695-6.585 2.597-13.489 2.597-20.604 0-45.516-36.898-82.414-82.414-82.414-.001-68.275-55.349-123.622-123.623-123.622s-123.622 55.347-123.622 123.622c-45.516 0-82.414 36.898-82.414 82.414 0 7.114.902 14.018 2.597 20.604h-21.656c-17.068 0-30.905 13.837-30.905 30.905 0 17.069 13.837 30.905 30.905 30.905h450.189c17.069 0 30.905-13.837 30.905-30.905 0-17.069-13.837-30.905-30.905-30.905z"
         fill="#cdd2e1"
         id="path2" />
    </g>
    <g
       id="g8">
      <path
         d="m245.004 246.751c-63.122-5.565-112.626-58.562-112.626-123.13-45.516 0-82.414 36.898-82.414 82.414 0 7.114.902 14.018 2.597 20.604h-21.656c-17.068.001-30.905 13.838-30.905 30.906s13.837 30.905 30.905 30.905h273.823c-27.428.001-50.8-17.364-59.724-41.699z"
         fill="#bec3d2"
         id="path6" />
    </g>
    <g
       id="g28">
      <path
         d="m219.114 341.338-28.464 59.239c-4.379 9.114 2.263 19.675 12.375 19.675h6.293c10.112 0 16.754 10.561 12.375 19.675l-19.876 41.365c-6.836 14.225 3.531 30.708 19.312 30.708 5.753 0 11.255-2.351 15.231-6.509l82.527-86.289c8.352-8.733 2.163-23.218-9.922-23.218-10.084 0-16.727-10.508-12.402-19.617l12.861-27.091c4.325-9.109-2.319-19.617-12.402-19.617h-59.337c-7.921-.001-15.141 4.54-18.571 11.679z"
         fill="#fcef92"
         id="path26" />
    </g>
    <g
       id="g32">
      <path
         d="m236.441 505.407 31.463-65.479c4.379-9.114-2.263-19.675-12.375-19.675h-6.293c-10.112 0-16.754-10.561-12.375-19.675l34.077-70.919h-33.254c-7.921 0-15.141 4.541-18.571 11.68l-28.464 59.239c-4.379 9.114 2.263 19.675 12.375 19.675h6.293c10.112 0 16.754 10.561 12.375 19.675l-19.876 41.365c-6.835 14.224 3.531 30.707 19.313 30.707 5.754 0 11.257-2.352 15.234-6.511z"
         fill="#ffd883"
         id="path30" />
    </g>
    <g
       id="g56">
      <g
         id="g42">
        <g
           id="g36">
          <ellipse
             cx="174.042"
             cy="185.397"
             fill="#fff"
             rx="30.241"
             ry="24.082"
             id="ellipse34" />
        </g>
        <g
           id="g40">
          <ellipse
             cx="337.958"
             cy="185.397"
             fill="#fff"
             rx="30.241"
             ry="24.082"
             id="ellipse38" />
        </g>
      </g>
      <g
         id="g46">
        <path
           d="m191.667 169.715c-4.142 0-7.5-3.358-7.5-7.5v-12.362c0-4.142 3.358-7.5 7.5-7.5s7.5 3.358 7.5 7.5v12.362c0 4.142-3.358 7.5-7.5 7.5z"
           fill="#495560"
           id="path44" />
      </g>
      <g
         id="g50">
        <path
           d="m320.333 169.715c-4.143 0-7.5-3.358-7.5-7.5v-12.362c0-4.142 3.357-7.5 7.5-7.5s7.5 3.358 7.5 7.5v12.362c0 4.142-3.357 7.5-7.5 7.5z"
           fill="#495560"
           id="path48" />
      </g>
      <g
         id="g54">
        <path
           d="m272.964 177.074c-2.093 0-4.174-.871-5.657-2.572-2.854-3.276-6.976-5.155-11.307-5.155s-8.452 1.879-11.307 5.155c-2.722 3.122-7.459 3.447-10.582.726s-3.448-7.459-.726-10.582c5.704-6.545 13.947-10.299 22.615-10.299s16.91 3.754 22.615 10.299c2.722 3.123 2.396 7.86-.727 10.582-1.42 1.238-3.176 1.846-4.924 1.846z"
           fill="#495560"
           id="path52" />
      </g>
    </g>
  </g>
</svg>
