<svg id="Capa_1" enable-background="new 0 0 512 512" height="512" viewBox="0 0 512 512" width="512" xmlns="http://www.w3.org/2000/svg"><g><g><path d="m459.44 226.64c1.695-6.585 2.597-13.489 2.597-20.604 0-45.516-36.898-82.414-82.414-82.414-.001-68.275-55.349-123.622-123.623-123.622s-123.622 55.347-123.622 123.622c-45.516 0-82.414 36.898-82.414 82.414 0 7.114.902 14.018 2.597 20.604h-21.656c-17.068 0-30.905 13.837-30.905 30.905 0 17.069 13.837 30.905 30.905 30.905h450.189c17.069 0 30.905-13.837 30.905-30.905 0-17.069-13.837-30.905-30.905-30.905z" fill="#636978"/></g><g><path d="m245.004 246.751c-63.122-5.565-112.626-58.562-112.626-123.13-45.516 0-82.414 36.898-82.414 82.414 0 7.114.902 14.018 2.597 20.604h-21.656c-17.068.001-30.905 13.838-30.905 30.906s13.837 30.905 30.905 30.905h273.823c-27.428.001-50.8-17.364-59.724-41.699z" fill="#555a66"/></g><g><g><g><ellipse cx="174.042" cy="185.397" fill="#ffa1ac" rx="30.241" ry="24.082"/></g><g><ellipse cx="337.958" cy="185.397" fill="#ffa1ac" rx="30.241" ry="24.082"/></g></g><g fill="#fff"><path d="m256 154.347c-8.668 0-16.911 3.754-22.615 10.299-2.722 3.123-2.396 7.86.727 10.582 3.121 2.722 7.859 2.396 10.582-.726 2.854-3.276 6.976-5.154 11.307-5.154s8.452 1.878 11.307 5.154c1.483 1.702 3.564 2.572 5.657 2.572 1.748 0 3.504-.607 4.925-1.846 3.123-2.721 3.448-7.459.727-10.582-5.706-6.545-13.949-10.299-22.617-10.299z"/><path d="m205.787 138.217-24.791-6.643c-4.003-1.068-8.114 1.303-9.186 5.303-1.072 4.001 1.302 8.114 5.303 9.186l7.531 2.018c-.303.815-.477 1.693-.477 2.613v10.679c0 4.142 3.357 7.5 7.5 7.5s7.5-3.358 7.5-7.5v-9.401l2.737.734c.65.174 1.304.257 1.946.257 3.312 0 6.342-2.21 7.239-5.561 1.073-4-1.301-8.113-5.302-9.185z"/><path d="m340.189 136.877c-1.071-4-5.183-6.372-9.186-5.303l-24.791 6.643c-4.001 1.072-6.375 5.185-5.303 9.186.897 3.351 3.928 5.561 7.239 5.561.643 0 1.296-.083 1.946-.257l2.737-.734v9.401c0 4.142 3.357 7.5 7.5 7.5s7.5-3.358 7.5-7.5v-10.679c0-.921-.174-1.798-.477-2.613l7.531-2.018c4.003-1.073 6.377-5.186 5.304-9.187z"/></g></g><g><path d="m219.114 341.338-28.464 59.239c-4.379 9.114 2.263 19.675 12.375 19.675h6.293c10.112 0 16.754 10.561 12.375 19.675l-19.876 41.365c-6.836 14.225 3.531 30.708 19.312 30.708 5.753 0 11.255-2.351 15.231-6.509l82.527-86.289c8.352-8.733 2.163-23.218-9.922-23.218-10.084 0-16.727-10.508-12.402-19.617l12.861-27.091c4.325-9.109-2.319-19.617-12.402-19.617h-59.337c-7.921-.001-15.141 4.54-18.571 11.679z" fill="#fcef92"/></g><g><path d="m236.441 505.407 31.463-65.479c4.379-9.114-2.263-19.675-12.375-19.675h-6.293c-10.112 0-16.754-10.561-12.375-19.675l34.077-70.919h-33.254c-7.921 0-15.141 4.541-18.571 11.68l-28.464 59.239c-4.379 9.114 2.263 19.675 12.375 19.675h6.293c10.112 0 16.754 10.561 12.375 19.675l-19.876 41.365c-6.835 14.224 3.531 30.707 19.313 30.707 5.754 0 11.257-2.352 15.234-6.511z" fill="#ffd883"/></g><g><path d="m393.765 341.338-28.464 59.239c-4.379 9.114 2.263 19.675 12.375 19.675h6.293c10.112 0 16.754 10.561 12.375 19.675l-19.876 41.365c-6.836 14.225 3.531 30.708 19.313 30.708 5.753 0 11.255-2.351 15.231-6.509l82.527-86.289c8.352-8.733 2.163-23.218-9.922-23.218-10.084 0-16.727-10.508-12.402-19.617l12.861-27.091c4.325-9.109-2.319-19.617-12.402-19.617h-59.337c-7.922-.001-15.141 4.54-18.572 11.679z" fill="#fcef92"/></g><g><path d="m411.093 505.407 31.463-65.479c4.379-9.114-2.263-19.675-12.375-19.675h-6.293c-10.112 0-16.754-10.561-12.375-19.675l34.077-70.919h-33.254c-7.921 0-15.14 4.541-18.571 11.68l-28.464 59.239c-4.379 9.114 2.263 19.675 12.375 19.675h6.293c10.112 0 16.754 10.561 12.375 19.675l-19.876 41.365c-6.836 14.224 3.531 30.707 19.313 30.707 5.754 0 11.257-2.352 15.234-6.511z" fill="#ffd883"/></g><g><path d="m44.463 341.338-28.464 59.239c-4.379 9.114 2.263 19.675 12.375 19.675h6.293c10.112 0 16.754 10.561 12.375 19.675l-19.876 41.365c-6.836 14.225 3.53 30.708 19.312 30.708 5.753 0 11.255-2.351 15.231-6.509l82.527-86.289c8.352-8.733 2.163-23.218-9.922-23.218-10.084 0-16.727-10.508-12.402-19.617l12.861-27.091c4.325-9.109-2.319-19.617-12.402-19.617h-59.337c-7.921-.001-15.141 4.54-18.571 11.679z" fill="#fcef92"/></g><g><path d="m61.79 505.407 31.463-65.479c4.379-9.114-2.263-19.675-12.375-19.675h-6.293c-10.112 0-16.754-10.561-12.375-19.675l34.077-70.919h-33.253c-7.921 0-15.14 4.541-18.571 11.68l-28.464 59.239c-4.379 9.114 2.263 19.675 12.375 19.675h6.293c10.112 0 16.754 10.561 12.375 19.675l-19.876 41.365c-6.836 14.224 3.53 30.707 19.312 30.707 5.754 0 11.257-2.352 15.234-6.511z" fill="#ffd883"/></g></g></svg>